<?xml version="1.0" encoding="UTF-8"?>
<svg xmlns="http://www.w3.org/2000/svg" xmlns:xlink="http://www.w3.org/1999/xlink" viewBox="0 0 612.76 814.95">
  <defs>
    <style>
      .cls-1 {
        fill: #cbccfc;
      }

      .cls-2 {
        fill: #c1cccb;
      }

      .cls-3 {
        fill: #a16564;
      }

      .cls-4 {
        fill: #ededf4;
      }

      .cls-4, .cls-5, .cls-6 {
        stroke: #000;
        stroke-miterlimit: 10;
      }

      .cls-5 {
        fill: none;
      }

      .cls-7 {
        fill: #33342f;
      }

      .cls-8 {
        fill: url(#linear-gradient-2);
      }

      .cls-9 {
        fill: #f8fdfd;
      }

      .cls-10 {
        fill: #befdfd;
      }

      .cls-11 {
        fill: #6d5a44;
      }

      .cls-12 {
        fill: #8bcdcc;
      }

      .cls-13 {
        fill: #665743;
      }

      .cls-14 {
        fill: #aa5c62;
      }

      .cls-15 {
        fill: #66662d;
      }

      .cls-16 {
        fill: #a37f84;
      }

      .cls-17 {
        fill: #a87891;
      }

      .cls-6, .cls-18 {
        fill: #989999;
      }

      .cls-19 {
        fill: #2d241a;
      }

      .cls-20 {
        fill: #989761;
      }

      .cls-21 {
        fill: #606666;
      }

      .cls-22 {
        fill: #4aa89d;
      }

      .cls-23 {
        fill: #efabb3;
      }

      .cls-24 {
        fill: #000100;
      }

      .cls-25 {
        fill: #20672c;
      }

      .cls-26 {
        fill: #a5838f;
      }

      .cls-27 {
        fill: #313404;
      }

      .cls-28 {
        fill: url(#linear-gradient);
      }
    </style>
    <linearGradient id="linear-gradient" x1="216.65" y1="344.46" x2="270.42" y2="344.46" gradientUnits="userSpaceOnUse">
      <stop offset="0" stop-color="#231f20"/>
      <stop offset=".25" stop-color="#252122"/>
      <stop offset=".41" stop-color="#2e272a"/>
      <stop offset=".54" stop-color="#3d3337"/>
      <stop offset=".66" stop-color="#514349"/>
      <stop offset=".77" stop-color="#6c5861"/>
      <stop offset=".88" stop-color="#8e727f"/>
      <stop offset=".97" stop-color="#b490a2"/>
      <stop offset="1" stop-color="#c19aad"/>
    </linearGradient>
    <linearGradient id="linear-gradient-2" x1="284.79" y1="334.54" x2="341.83" y2="334.54" gradientUnits="userSpaceOnUse">
      <stop offset="0" stop-color="#231f20"/>
      <stop offset=".23" stop-color="#252022"/>
      <stop offset=".39" stop-color="#2e272a"/>
      <stop offset=".53" stop-color="#3e3237"/>
      <stop offset=".65" stop-color="#534149"/>
      <stop offset=".77" stop-color="#6f5561"/>
      <stop offset=".87" stop-color="#916e7f"/>
      <stop offset=".98" stop-color="#b98aa1"/>
      <stop offset="1" stop-color="#c492aa"/>
    </linearGradient>
  </defs>
  <g id="Layer_1">
    <path id="hat_base_black" class="cls-24" d="M377.73,357.65s16.59,0,21.22-5.57,9.92-18.24,13.7-20.88,6.8-5.01,8.41-15.4,4.44-20.5-7.09-34.39c-7.28-11.91-10.58-26.36-20.03-32.13s-22.96-14.93-48.19-16.16-58.68-2.93-74.17-2.08-8.6-1.98-24.28-1.98-27.12-.57-35.15,7.28c-8.03,7.84-25.23,22.58-25.23,40.44s-1.7,37.42,5.86,47.34,10.58,14.65,13.51,14.74,24.98-13.58,25.67-17.01-4.6-7.7-4.13-13.28-1.23-4.43-1.13-13.46-.71-21.69,3.83-28.2c4.54-6.52,6.85-7.92,9.78-8.01s2.91-2.5,4.96-3.54,6-2.34,12.33-3.47,19.09-6.85,34.58-2.31,50.55,18.71,53.29,22.58,9.92,17.98,8.88,21.79,2.38,16.8,12.3,16.33,17.65-16.58,20.96-14.5,2.55,6.33.38,13.32.09,16.84-2.55,19.38-14.76,7.36-12.94,14.83,5.23,14.36,5.23,14.36Z"/>
    <path class="cls-7" d="M203.03,334.54s2.5.16,5.24-4.72,4.25-21.54,4.25-21.54l-2.98,2.96.43-3.54-3.69,2.42,2.72,4.06h-3.15l-.71-3.91-2.13,3.91,1.28-4.7-7.51,3.51-1.13,12.91,3.12-2.73,1.28,5.81,2.98,5.57Z"/>
    <path class="cls-7" d="M201.48,297.79s3.83.57,2.62,4.11-6.31,7.57-6.31,7.57h-2.83l6.52-11.68Z"/>
    <polygon class="cls-7" points="209.02 292.21 205.59 295.52 205.59 301.14 207.3 302.61 209.02 292.21"/>
    <path class="cls-7" d="M200.91,281.77v13.61l-1.84-8.22-1.56,6.77s-4.96,9.46-3.97,0,1.42-19.1,1.42-19.1c0,0,5.53-3.4,4.11,2.69s-1.91,9.64-1.91,9.64l3.75-5.39Z"/>
    <path class="cls-7" d="M193.41,273.88l-.58,20.05s-3.26-1.51-2.41-10.02-1.7,3.82-1.7,3.82l.85,12.95s-3.26-.55-3.4-6.75-1.89-19.34,2.25-26.38,13.06-21.35,21.28-27.16,11-9.22,11-9.22l-2.07,5.82s-13.28,1.98,5.48-1.7,21.95-5.27,25.81-4.12,11.38-.41-7.69,4.97-24.31-1.84-26.58,5.95-12.05,15.17-10.06,11.2-2.27-.14-2.27-.14c0,0-8.22,7.65-2.41,5.74s7.37-2.18,7.37-1.34.57,8.07-2.69,7.51c-3.26-.57-2.83-3.54-2.83-3.54,0,0-4.1-1.28-5.59,1.98s-5.89,2.69-6.03,8.15.99-.64,3.83-.78-1.55,3.02-1.55,3.02Z"/>
    <path class="cls-7" d="M320.96,236.14c6.24.43,20.27.28,19.42,2.83s-2.13,2.98,3.26,2.13,13.08-1.42,14.88-3.83l1.81-2.41s7.12-1.84-13-.85-26.36,2.13-26.36,2.13Z"/>
    <path class="cls-7" d="M351.15,242.37c.85,3.4,1.41,5.67,1.41,5.67l1.7-5.67s2.83,4.54,2.98,4.96,7.94-2.13,7.94-2.13l-4.68,8.5h9.35l-6.52,2.41s4.15,1.7,3.71,2.13.3,3.12,0,3.69,2.81-5.39,2.81-5.39l1.7,6.09s5.24,5.21,10.2,3.1,10.77.44,11.06-2.67,4.82-12.05-.85-9.35-14.31,4.17-13.61.6-5.38-2.86-5.38-2.86v-2.98l5.95,1.28s1.13,1.84,1.84-1.56,2.79-3.4,3.02-1.7-3.21,6.09,0,6.09,2.65-1.13,5.48-.99-.43-3.26-1.7-4.54l-1.28-1.28s1.13.57,0,0-14.14-6.71-21.93-6.94-13.22,3.54-13.22,3.54Z"/>
    <path class="cls-7" d="M389.27,267.46c-.43,0-10.35,1.7-10.35,1.7l10.35,2.27,8.22.71s-1.56,1.7-1.98,1.7h-12.76s-5.1,1.42-1.56,2.69,2.6,3.83,2.6,3.83c0,0-1.32,2.83,4.42,3.54s12.26,1.98,6.45,3.4-5.81,4.16-2.98,4.91,8.65-5.48,8.65-5.48l-1.84,12.61s.57.82,8.65,1.33,1.42,2.5-2.83,2.78-11.22-1.28-9.37,1.7,2.11,6.24,0,5.53-5.52-1.59-2.82.55,5.75,3.42,2.31,4.13-5.85,2.69-2.73,3.12,2.83.35.85,2.59-5.67,3.93-.85,3.08,7.37-.4,4.25,2.14-2.83,6.79-2.83,6.79c0,0,3.4.93,3.26,1.46s-3.97,2.51-3.97,2.51c0,0-4.25,3.83-1.98,4.25s4.82.57,7.65-2.55,9.64-12.46,9.64-12.46c0,0,1.56-5.68,1.13-5.96s-7.65-.28-7.65-.28l9.76-2.83-6.07-4.07,6.94-6.6h2.41l-4.11,7.64h2.69s3.83-7.17,5.95-5.76-5.24,8.65-5.24,8.65l2.69,3.4-6.94,12.33-3.4.14-3.26,3.83,6.32-.96-6.6,6.85-6.38,1.06-4.54,1.98-1.13,2.98,6.09-1.28-6.38,2.95,5.67-.16s-.28,4.99,1.51,3.43,20.17-26.22,21.3-30.89,6.48-19.7,3.52-25.87-4.21-13.66-8.54-16.36-7.38-6.71-7.45-10.92-3.4-9.07-6.38-7.09-10.35,4.96-10.35,4.96Z"/>
    <path class="cls-7" d="M229.61,311.35c-3.02-10.58-4.77-9.8-4.98-14.48s-1.28-7.87.43-13.46.71-10.98,3.76-15.31,2.98-9,7.65-10.91,3.97.43,7.72-2.27,4.89-3.76,11.34-3.97,3.69-.99,9.5-3.4,9-2.83,13.82-1.84,16.02.43,19.63.21,5.17,2.62,8.22,3.47,1.84,1.91,7.3,1.77c4.48.85,4.39,1.77,4.39,1.77,0,0,2.98-2.06,6.24-1.06s4.46,1.35,4.75,2.06.78-1.56,1.13-2.2-.07-1.61,1.84,1.67,1.2,2.79,1.2,2.79l-1.7.64s2.83.5,4.46,3.9.57,4.18,2.55,5.17,3.83.28,5.74,2.48,2.62,2.27,4.68,1.7c0,0,1.84.92,2.76,3.9s3.76,11.41,3.76,11.41c0,0,.71-1.42,1.35-.21s4.11,3.69,1.91,6.8-3.4,6.02-2.55,7.02,5.74.85,5.81,2.41,3.1,7.65,5.8,7.02,3.84-10.42,8.51-12.12,7.87-6.38,12.61-3.9,6.59,1.77,3.97,7.8-4.46,13.32-3.83,18.43c0,0-.32,4.22-2.43,9.84s-2.53,7.6.3,7.6c0,0,2.62.07-1.13,2.2s-5.27,3.83-8.55,4.39-75.92-54.97-75.92-54.97l-72.05,23.67Z"/>
    <path id="face_base" class="cls-11" d="M399.89,396.89c-6.09,4.11-9.92,3.5-11.67,11.3s2.64,3.97-2.89,10.2-6.38,7.65-8.22,12.05-16.72,24.52-21.69,28.63-6.4,6.24-8.39,5.03.14-4.46-12.4,2.27-19.68,14.03-28.26,13.39-9.65,3.61-11-3.26c-1.35-6.87-6.66-16.37-5.74-18.71s-4.61-16.44-8.29-19.56-9.92-4.77-15.17-11.6-15.17-21.28-19.84-32.2-11.76-26.08-15.02-30.05-1.84-39.69-2.98-44.79-2.98-14.74-2.55-21.97.57-19.56,2.83-23.81,9.55-11.76,14.91-14.31,11.03-6.38,20.38-6.09,24.24.28,31.89,3.12,14.21,4.39,15.39,6.8.05,2.55,6.15,4.54,9.5,2.69,10.49,5.95.71,2.83,4.11,3.54-.47,2.88,2.93,3.54,3.35,1.09,4.11-.33.66-2.5,2.27.19,1.94.94,2.41.9,2.13-1.28,2.41-.24.99,1.46-2.08,1.51-6.71-.43-5.53.57,4.77,4.11,6.14,4.16,1.32.09,2.69-.24,2.22-.28,2.27,1.65,3.59,4.16-4.06,6.09c-2.22.99-3.97,2.22-3.59,3.31s1.75,2.03,1.18,3.07-.47,7.24,13.32,11.58c3.81,1.28,4.81,2.38,6.47,6.35s2.34,4.82,2.09,7.23,4.48,6.43,8.06,7.82,5.1,10.85,3.21,15.66-2.2-3.82,1.01,3.73,5.28,18.86,9.7,26.6,12.93,16.36,12.93,16.36Z"/>
    <path id="cheek" class="cls-3" d="M333.19,351.95s1.49,4.53-1.44,10.21-1.23,13.23-1.23,20.6.94,15.69-2.36,23.15-11.72,18.52-11.53,20.03,3.14.76,8.47-4.25,18.89-12.87,20.45-36.47c.23-3.51.38-14.08.38-14.08,0,0-.85-9.97-1.65-10.82s-.57-.78-.57-.78l-2.01,3.45-5.64-12.64-2.87,1.6"/>
    <path class="cls-20" d="M336.91,368.65s-2.71,12.2-3.47,17.5c-.63,4.36,0,8.08,1.2,9.28,0,0,2.91-8.57,3.54-13.68s1.35-7.44.43-10.49c-1.82-3.09-1.7-2.62-1.7-2.62Z"/>
    <path class="cls-15" d="M340.36,376.07c-.25,1.03-1.45,9.35-1.49,11.83s-1.63,10.03-3.61,12.15c0,0,3.4,1.91,4.18,0s1.35-8.89,2.27-11.13,1.63-2.13,1.03-4.04-1.59-4.75-1.52-6.13-.85-2.69-.85-2.69Z"/>
    <path class="cls-14" d="M345.35,318.16c3.69-1.32,4.99-5.57,5.8,0s.72,5.86,7.61,7.46-1.13,7.75,2.55,10.96,4.91-6.71,6.52-.47,3.97.47,8.79-.19,10.3-3.12,5.76,1.8-5.76,5.86-8.79,8.22-1.23-.45.66,4.41l-2.46-1.1s-.94-4.63-1.7,4.06,1.7,19.09-1.61,24.38-2.46,7.33-5.95,10.8-7.09,6.35-7.09,12.42l6.24-5.47s-4.35,4.27-1.42,8.24l4.91-5.95s-3.87,2.27-2.65,8.5c0,0,4.65-9.07,4.5-4.91s-2.33,9.54-2.33,9.54l6.62-7.65s-1.13,3.21-1.51,9.73l4.91-8.69s-1.8,4.16-2.08,10.77,10.58-9.97,10.58-9.97c0,0,4.68-14.31,2.98-18.85s-9.21-24.94-10.91-32.6.57-6.8-5.95-10.2-.53,10.06-3.38,11.34-14.76-5.81-17.74-9.64-3.4-2.83-2.98-3.83-4.25-12.75-2.83-15.37,2.93-7.73,2.93-7.73Z"/>
    <path class="cls-16" d="M344.34,331.5c.38-2.17.47-5.2,2.08-.76s3.31,4.54,1.7,9.26-.09,2.46,1.23,0-.28-3.78,3.4,1.7,1.14,6.05,5.81,4.72,4.58-3.31,6.56-1.23,1.78.17.84,9.53-1.74,10.88-7.12,24.11-14.26,27.79-18.07,29.95c0,0-2.06-.63-1.82-1.64s6.02-17.62,6.31-25.41-.85-18.14-2.23-19.91.57,3.51-1.81,4.89-5.96-14.08-5.96-14.08l9.08-21.14Z"/>
    <path class="cls-2" d="M378.98,359.48c-1.98-2.62.64-5.03-3.26-1.91s-2.83-9.99-3.47,10.35-5.74,23.24,1.06,27.53,9.14,5.5,11.83,3.72,1.91-5.74,2.13-7.16,2.21,1.06-.31-4.68-7.27-15.45-7.48-20.76-.5-7.09-.5-7.09Z"/>
    <path class="cls-18" d="M375.3,351.61c-1.42-.99,0-.57-1.42-.99l-1.42-.43s-1.98-.28-2.69,4.96-2.69,19.42-3.83,24.38-2.41,8.96-2.41,8.96c0,0,2.76.68,3.51-2.01s2.94-1.7,0,3.69-3.51,6.8-3.51,6.8l5.46-5.39-3.69,13.54.99.71,3.12-5.46,1.28,8.42,4.61-9.2s-.5,9.28.78,10.42,1.42.99,2.48.43,3.83-7.51,3.83-7.51l1.13,2.55,3.33-1.56s.57-3.9-.85-5.46-5.74-.21-5.74-.21c0,0-6.8-2.55-5.88-7.51s5.53-14.66,5.53-14.66c0,0-.78-3.13-3.61,3.18s-4.39,3.4-1.98-4.32,1.1-7.37.94-7.02.62-1.56-1.23,2.27-.24-12.9,1.23-13.82,1.33-2.34.69-3.54"/>
    <path class="cls-24" d="M383.79,298.57l2.79,9.85h1.1l.92-11.06-1.13-.5-.89,3.33s-.95.21-1.52-1.13-1.28-.5-1.28-.5Z"/>
    <path class="cls-24" d="M378.83,312.25l5.88,3.83s-1.13,5.6-4.68,7.02-3.54,1.49-5.46,3.76-3.12,3.05-3.12,3.05l-.71-.85s2.2-3.05,1.06-8.5c0,0,4.11.78,3.33-1.49s-1.7-3.05-1.7-3.05l.92-.64s.28,1.77,2.06,1.28,2.2-2.83,1.31-4.39h1.1Z"/>
    <path class="cls-3" d="M268.24,264.2s2.17-4.4-4.44-5.32-12.71-3.33-17.39,2.06-6.71,11.48-10.72,13.89-3.87,2.83-4.58,10.35-2.55,24.8-1.42,27.07.85,2.07,3.54.89,0,1.05,4.96.86,9.92-.71,13.46-1.02,1.42-1.07,8.22.16,13.18,2.22,20.83-2.31,15.87-11.62,20.41-13.18,7.65-.14,5.1-3.83-2.98-6.66-7.8-6.38-14.74,5.72-15.02,1.87,2.41-12.35,4.25-15.05,1.13-5.67-1.28-5.81-10.63,1.56-10.91-1.13,1.28-4.11-2.55-3.26-4.68.14-4.68.14Z"/>
    <path class="cls-26" d="M245.46,289.31s-1.46,6.47-2.31,7.65-1.23,3.54-3.35,4.2-1.8-.09-4.3,7.51c0,0-2.22,3.73,3.5,2.74s6.47,1.56,6.47,1.56c0,0,.99-3.54,5.01-3.45s8.08.57,10.68-1.61,7.09-4.87,7.09-4.87c0,0-3.54-.24-3.97-1.28s-4.16-5.67-3.78-6.38.24-1.13.24-1.13c0,0-4.87.57-5.24-.99s-.09-3.59-.8-2.93-2.55,3.83-4.25,2.13-4.96-3.17-4.96-3.17Z"/>
    <path class="cls-18" d="M272.06,297.1s-3.73,2.88-2.98,4.96.09,6.19,4.25,5.57,6.14-.28,10.11-3.02,9.87-6.94,9.92-8.65,1.42-2.13-1.42-3.02-7.7-.94-10.06-.28c-5.43.85-9.83,4.44-9.83,4.44Z"/>
    <path class="cls-18" d="M263.18,262.1s-4.3-4.02-6.57-3.07-2.65,2.65-5.53,4.87-7.89,8.46-7.51,10.54,3.39,9.97,3.39,9.97c0,0,10.41-2.6,11.26-4.16s-2.5-2.36-.99-3.78,3.64,1.13,3.78-1.65-.61-7.56,1.15-10.87c.09-.18.46-1.18.46-1.18l.56-.66Z"/>
    <path class="cls-15" d="M266.98,255.34s10.06.78,13.89,2.2,5.6,4.54,11.06,4.39c0,0,2.13-1.7,2.91,1.49s-1.49,2.34,2.83,2.91,8.5-.21,5.88,1.56-3.12-.14-1.56,3.75,2.91,4.25-.43,6.17c0,0,2.06,1.7.57,2.83s.5.92,3.26,1.49,9.5,1.98,10.28,4.18,2.2,7.65,2.2,7.65c0,0,.43-2.69,4.18-4.18s2.62-4.04,3.76.35,2.55,5.74,2.27,6.73-.07-1.56,3.69.78,6.87,4.11,6.52,5.81-.85,4.39-1.84,2.34-3.47-2.91-4.61-2.27c0,0,1.56-1.2-2.91-4.04s-4.68-5.74-8.72-4.89-5.95,2.55-7.3,1.42-1.77-1.13-2.13-4.25,2.76-4.54-2.69-5.31-4.46-2.62-8.57-1.77-6.51,1.35-5.77-.57,3.44-4.46,0-2.06-3.73,4.68-3.44,1.98,6.24-7.44,2.55-8.29,6.24-3.12,3.76-5.46-3.33-6.02-7.3-5.6-7.87-1.84-8.29-3.05l-.43-1.2-.57-.64s-5.03-2.76-8.43-2.76-5.39-.07-5.31-.43l.07-.35s-.43-.07-.07-.28.71-.64.71-.64Z"/>
    <path class="cls-23" d="M252.26,301.02c-1.28-.85-2.55-2.03-3.78,0s-2.22,3.45-.9,4.82,1.51,1.61,2.69.52.94-.05,1.18-2.08.8-3.26.8-3.26Z"/>
    <path id="eyebrows" class="cls-7" d="M226.7,312.29s.14,3.26,2.62,4.96,3.47,1.98,7.16,0,15.17-3.78,19.98-1.89,9.35,5.22,16.72,3.27,11.06-4.93,13.75-8.19,14.46-9.5,23.39-11.48,11.02-5.11,17.82,0,12.13,4.73,12.23,6.66-6.62,5.95-10.06,3.54-3.83-4.11-6.09-2.13-3.04,1.12-.31,2.62,7.68.22-4.65,2.49-11.2-1.13-23.1,4.82-12.05,10.76-21.97,8.92-10.54-3.95-15.74-4.32c-8.84-.63-6.19-.86-11.49-1.34-4.71-.42-3.93,4.7-9.62,4.11s-3.69-1.42-6.24-3.26-4.39-2.64-4.39-5.72v-3.07Z"/>
    <path id="eyebrowww" class="cls-24" d="M257.6,320.94s-2.55-3.83-9.5-2.83-5.81,1.34-5.81,1.34l-.07,2.21s1.06.43,6.45,0,8.93-.71,8.93-.71Z"/>
    <path id="eyebroww" class="cls-24" d="M313.31,304.36c-6.25.43-9.36,2.41-13.33,4.25s-7.09,1.8-9.78,4.37,2.13,1.68,6.94,0,8.79-2.39,11.34-4.37,4.83-4.25,4.83-4.25Z"/>
    <path class="cls-3" d="M274.62,335.68s5.16,3.48,6.37,5.61l1.2,2.13s-1.63,3.33-1.7,4.89-.43,3.26,1.7,5.53,3.05,2.46,1.7,3.81-4.25,1.78-4.32,4.12.14,4.54.71,5.71,1.06,1.73-1.49,2.72-5.46,3.9-6.38,4.68-2.72-1.51-2.6-2.88,4.8-36.31,4.8-36.31Z"/>
    <path class="cls-17" d="M274.53,335.34s2.19,1.99,2.26,4.05-.44,5.67,0,8.93.32,13.25-1.46,16.87-3.34,8.5-4.2,7.44-5.75-2.58-4.85-8.01,2.65-13.21,3.23-16.69,1.47-10.77,2.73-11.54,2.29-1.04,2.29-1.04"/>
    <path class="cls-18" d="M295.37,391.85s4.6-3.01,3.96-3.45-6.24-.09-7.8.41-17.34,2.16-17.93,4.35,18.37,1.1,18.37,1.1l3.39-2.42Z"/>
    <path class="cls-18" d="M307.79,392.34s1.43-4.33.79-4.77-7.32-.29-8.88.21-4.73,3.05-5.32,5.25,3.88.5,3.88.5l9.52-1.19Z"/>
    <path class="cls-18" d="M307.5,389.55s.64-.77,0-1.2-2.54-.51-4.1,0-2.59.93-3.17,3.13,3.88.5,3.88.5l3.39-2.42Z"/>
    <path class="cls-18" d="M289.58,394.9s-11.49-3.11-12.15-3.55-4.39-1.02-6-.51-2.63,0-3.23,2.19,16.66,2.65,16.66,2.65l4.72-.78Z"/>
    <path id="mouth_deep" class="cls-24" d="M301.56,392.47c-2.36-.21-6.19-.61-6.19-.61,0,0-3.02,2.15-5.08,2.67s-7.89,1.49-7.89,1.49v.69h4.49s2.22-.43,4.77-.61,6.28-.17,7.68-1.18,2.22-2.43,2.22-2.43Z"/>
    <polygon id="mouth_deep-2" data-name="mouth_deep" class="cls-24" points="319.13 385.2 312.91 385.04 308.24 386.42 307.79 391.3 319.13 389.17 319.13 385.2"/>
    <path id="mouth_area" class="cls-7" d="M300.05,357c2.65.28,5.29,1.06,8.8,1.35s8.05.35,10.96-.26,3.1-.66,3.1-.66l-12.27,3.26s2.46,1.04,3.31,1.8,3.12,4.35,5.76,6.71,6.14,5.1,6.61,8.98-.47,7.75-.85,9.73.94,2.93.38,6.8-2.27,11.72-2.27,11.72l-.66-2.83s-1.13,1.98-3.12,1.13-3.21-1.04-3.78-2.55,1.89-1.7,1.89-1.7l-5.1-7.84s-1.81,1.23-3.55,2.17-9.02,3.5-12.14,2.65-6.9-.57-8.31-.57-1.72-.14-1.72-.14c0,0,2.55-.81,4.61-.92s5.6-.67,6.94-1.42,2.48-1.13,2.8-2.13.39-3.05,2.23-2.34,3.26,1.06,5.14.6,4.32-3.12,6.27-3.01,1.77,1.1,2.16.57,1.38-1.45,1.17-2.09,0-.74-1.03-.78-4.46-.18-4.46-.18l8.33-3.33s-1.31-3.58-4.43-4.22-7.72-.25-9.64-.89-3.79-1.42-4.71.35-2.13,6.63-2.13,6.63c0,0-1.45-.71-1.95.57s-.46,1.81-1.45,2.13,11.3.14,11.3.14l-.07,1.24s-4.93.64-6.63.64-3.21.65-4.64,1.24c-.87.35-2.19.47-2.19.47,0,0-2.24-.35-3.31-.11s-1.45.66-4.6.94-6.94.21-7.9.46-2.66-.25-2.83-.46.32.43-.18-.21-.78-.6-.78-.6l16.37-4.57s-2.41-2.34-6.09-2.34-5.49,1.63-7.72.71-4.18-2.23-3.51-3.9.43-1.52,1.17-1.52,5.1.28,8.86-2.3,4.04-3.01,4.04-3.01l-.04-1.67.71-2.2s9.28-1,10.06-1.76,1.24-1.29,2.41-2.25,1.88-2.02.99-4.22-1.1-2.59-1.67-3.19-.64-.83-.64-.83Z"/>
    <path class="cls-7" d="M272.21,390.52s-7.87-.21-9.99-1.06-4.32-3.05-5.39-2.27-.78,5.39-.78,5.39c0,0,.64.85,1.98,0s1.42-2.48,2.41-2.2,3.69-.78,5.39.92,2.48,2.98,2.48,2.98l.21-2.42,3.69-1.33Z"/>
    <path class="cls-7" d="M254.64,374.01s2.06,1.35.35,3.9-5.03,8.65-5.03,8.65h-1.42s-.57-2.98,0-4.39,3.12-6.87,4.75-7.72,1.35-.43,1.35-.43Z"/>
    <path class="cls-7" d="M297.23,406.41s-3.69.69-7.09.4-5.17-.57-8.79.92-3.12,3.47-1.49,4.75,10.2,1.77,12.12,1.2,5.24-.85,5.24-.85l.35-6.43"/>
    <path class="cls-24" d="M268.04,393.16s1.52.62,3.69,1.11,4.57,1.05,4.39,1.23-4.25-.57-5.17-.67-2.91-.56-2.91-.56v-1.11Z"/>
    <path class="cls-3" d="M263.69,407.3l3.02,4.25v-1.39s7.63,4.13,10.29,4.32,5.13,2.55,5.4,3.59,2.36,4.16-1.9,5.01-9.17-1.04-12.47-6.14-5.29-8.98-5.29-8.98l.94-.66Z"/>
    <path class="cls-3" d="M264.12,395.68s-2.41,3.97,0,6.9,4.07,3.84,4.07,3.84c0,0,1.93-3.27.71-4.59s-2.03-1.61-3.4-3.87l-1.37-2.27Z"/>
    <path class="cls-3" d="M272.08,396.27l-.74,1.21s-.38,1.42,1.61,1.8,3.17-.38,3.17-.38c0,0-2.3-.59-3.17-1.61l-.87-1.02Z"/>
    <path class="cls-18" d="M232.7,364.26c-1.51.43-1.87-.78-1.09,2.34s2.76,11.76,5.74,15.8,3.33-3.4,3.33-3.4l-5.88-13.18-2.1-1.56Z"/>
    <path class="cls-15" d="M237.36,367.8s4.61-.14,5.67,1.98,2.27,4.57,3.12,10.44,1.63,13.3,1.63,13.3c0,0,2.88,8.79,4.21,9.78s1.32-1.86,1.32-1.86c0,0,3.54,1.23,4.46.87s1.35,1.06.57-1.56.41-4.49.41-4.49c0,0,1.58.16,1.44,3.85s-.78,6.94-1.63,7.87-.57,2.18-.57,2.18l-1.96-6.65v1.91l-1.52-1.56,3.69,10.49s-.85.5-3.33-2.83-11.2-16.11-12.69-19.68-4.82-24.05-4.82-24.05Z"/>
    <path class="cls-3" d="M237.6,365.68c1.71,3.55,1.9,9.88,3.98,11.48s2.36.47,3.02,4.06,2.46,7.68,3.02,9.51.85,3.1,1.51,5.54,1.42,5.18,1.42,5.18c0,0-5.06-8.47-7.02-10.8s-2.81-4.09-2.81-4.09l2.81,8.57s-5.26-9.26-7.06-14.17c-1.8-4.91,0-5.39,0-5.39l1.7.57-2.5-2.93v-3.4l-2.98-5.15,4.9,1.04"/>
    <path class="cls-3" d="M283.16,362.28s-.58,10.96.38,11.62,1.82.38,2.38-.66.77-1.03,1.51-1.42.74-1.3,1.46-2.59,1.7-.34.69-2.14.42-1.13-1.48-2.46-2.16-.68-1.61-1.61-3.34-.75-3.34-.75Z"/>
    <polygon class="cls-3" points="299.4 359.91 296.13 365.39 299.81 365.39 300.95 360.39 299.4 359.91"/>
    <path class="cls-15" d="M272.95,427.1s1.82,2.17,7.02,1.32,7.84-.19,10.77-1.32,7.19.02,3.59,1.52-7.37,1.41-10.77,1.31-6.14.57-8.41-.38-2.2-2.46-2.2-2.46Z"/>
    <path class="cls-15" d="M313.46,411.03l-4.01,5.2s-.19,5.86,1.04,5.95,1.87-.85,2.97-2.08-.89-3.49-.89-3.49c0,0,2.83.57,5.01,0s3.12-.85,3.02-2.22-.38-1.54-2.55-.47-2.56,2.02-3.03-.34-1.57-2.55-1.57-2.55Z"/>
    <path class="cls-20" d="M408.49,402.52s-2.98-.28-5.31-2.57c-3.12-3.06-4.57-4.9-4.57-4.9l-5.42-6.73-3.49-2.9-3.97-.86,1.96,3.93s-.89,1-.44,4.03,4.6,1.05,4.6,1.05l6.71,3.21-1.87.85-3.32-2.18-4.35,5.47s.71,1.91-.78,3.61-1.38-.61-1.38-.61l-1.81,1.84s-1.43,1.04.66,3.5-2.93,10.58-2.93,10.58c0,0,7.65-1.55,12.57-2.36,2.96-.49,4.77-1.61,4.77-1.61l2.89-1.33,3.12-1.22s-7.89-5.55-6-4.51,6.29-2.38,6.29-2.38l2.1-3.89Z"/>
    <polygon class="cls-15" points="324 408.79 321.92 412.54 322.96 412.54 325.23 409.24 324 408.79"/>
    <path class="cls-15" d="M307.28,399.88c-.47,3.78-.56,6.64-.9,6.53s-1.34-1.98-2.4-3.26,2.4-5.82,2.4-5.82l.9,2.55Z"/>
    <path class="cls-15" d="M312.28,382.5c-1.98-1.32.36-2.05-2.85-.79s-3.06,2.68-3.06,2.68h2.95s1.16,1.32,2.2,0,.76-1.89.76-1.89Z"/>
    <path class="cls-15" d="M305.53,432.86s-4.51,2.27-7.95,2.65-6.09.47-6.09.47c0,0,3.4.85,2.36,1.61s-6.01.19-4.28,2.17,4.67.76,6.13,3.69,1.36,5.67,2.31,10.87,4.25,19.75,4.25,19.75c0,0,1.23-1.98-.09-6.05s-3.02-6.99-1.13-8.98,11.72-2.27,11.72-2.27c0,0-3.5,4.54-2.83,8.31s.76,9.54.76,9.54l2.08-.76s-1.32-.94-1.13-3.5,1.42-7.65,2.36-9.54,0-10.87,0-10.87l-2.46,1.98s-6.7-13.51-6-15.69.85-2.93.85-2.93l-.85-.47Z"/>
    <path class="cls-15" d="M315.02,449.77c3.5-1.51,4.25-2.83,6.9,2.08s8.31,14.08,8.31,14.08h-2.55l1.42,1.7s-2.17-.38-3.12,1.04-1.8,2.36-2.93,1.61-2.65-.85-1.13-3.4.66-3.97-.85-4.72-2.17-4.82-2.27-5.1-1.7-5.57-2.55-5.67-1.23-1.61-1.23-1.61Z"/>
    <path class="cls-3" d="M284.88,441.55v2.55l5.01,13.13h1.13v-3.12l5.29,10.68h1.27v-1.89l-3.06-11.53s2.36.93.19-2.98-4.54-4.48-4.54-4.48v3.87l-4.44-5.29-.85-.94Z"/>
    <path class="cls-3" d="M295.71,468.2s-2.61,5.48.89,7.65,4.16,3.12,4.35,1.32-.19-5.98-.66-6.63-3.59-.55-3.69-1.4-.89-.94-.89-.94Z"/>
    <path class="cls-3" d="M316.64,457.8s-1.8,10.87-1.61,13.51,0,3.31,0,3.31l-2.27-.76,1.65,1.51s6.48-1.13,5.15-1.42-3.69.66-2.17-2.27,3.1-2.93,2.35-6.33-3.1-7.56-3.1-7.56Z"/>
    <polygon class="cls-18" points="512.54 488.48 512.04 486.63 496.6 477.28 482.28 470.9 477.96 468.78 473.99 468.78 475.12 470.62 493.97 477.99 512.54 488.48"/>
    <path class="cls-18" d="M472.08,468l-1.35.78s-2.69-1.35-6.87.64-6.94,2.34-8.36,2.62-16.16,5.88-20.91,9.14-12.12,7.44-14.24,9.99-10.13,10.63-12.19,13.61-5.17,7.8-8.5,15.8-5.46,13.82-5.46,13.82l-1.13-2.55s2.83-14.67,12.83-27.99c10.56-11.55,11.27-13.39,17.79-17.5s14.67-9.21,22.68-12.05,19.28-7.37,19.28-7.37l6.45,1.06Z"/>
    <path class="cls-4" d="M289.89,457.24s-5.62,5.01-10.02,7.56-11.48,8.79-13.96,12.61-5.95,8.08-7.23,18.28-1.35,27.71-1.06,35.01.01,24.66-.14,30.19.71,7.16,0,9.14-.71,2.41.21,6.38,1.2.92.71,7.72-3.26,11.06-1.91,17.65c1.35,6.59,1.63,9.43,7.09,13.11s4.96,3.12,7.02,9.99,4.54,10.91,4.25,15.24,1.91,17.22,3.19,22.82,7.02,16.8,6.73,27.99-.21,24.94.07,31.39,1.2,26.22,1.98,35.08c.78,8.86.35,19.56,2.06,26.65s2.41,8.49,2.41,8.49l77.69-.27s28.2-12.76,35.57-15.45,25.94-4.68,37.56-9.64,17.72-4.96,22.39-9.21,8.93-9.5,9.35-17.57,1.42-9.35,1.42-9.35c0,0-5.53-5.53-7.94-6.8s-6.8-5.39-7.37-7.8l-.57-2.41s-3.12-7.23-5.39-9.92-6.94-10.35-8.79-11.06,24.24-3.4,24.24-3.4c0,0,13.61-3.26,31.32-7.8s42.8-11.06,47.62-13.46,21.26-6.8,21.97-8.22,2.98-6.09,2.98-6.09l-4.11-12.76s-.43-6.38-1.7-8.93-3.54-9.5-3.54-11.34-.14-6.52-1.56-9.78.28-12.19-8.65-17.01c0,0,3.12-8.93-2.41-14.17,0,0,6.66-6.8-2.55-18,0,0,4.82.57,1.98-9.78,0,0,.28-8.65-3.54-16.16,0,0-1.28-6.52-5.67-12.9,0,0,2.13.85-.85-5.1s-3.83-12.47-9.35-18.99-14.03-16.87-17.72-18.28c0,0-4.82-4.39-10.06-8.22,0,0-5.1-9.35-16.16-17.15s-19.42-15.73-28.35-20.98-19.7-14.25-26.65-17.97-16.3-8.82-18.99-11.66-6.24-2.41-6.24-2.41c0,0-14.27,3.17-11.72,5.01s4.86,2.69-1.12,5.67-15.75,10.2-17.45,15.73-7.8,13.89-11.34,18.28-12.79,16.3-14.47,16.72-9.6,4.82-8.19,1.7,2.97-5.39,2.97-5.39c0,0-9.36,6.28-13.47,7.96-1.24.48-3.08.53-3.08.53l-6.24,2.98-.05,1.04s-1.13-.8-2.03.19-1.18,1.42-3.4,1.75-4.02.9-5.34,1.8-6.71,1.63-8.86,1.42-2.72.26-3.24.43-3.47-.33-4.37-2.65-1.68-3.41-.38-6.91c.26-.67.71-.41-.47-1.09s-2.01-3-2.53-5.22-1.58-5.21-1.58-5.21h-1Z"/>
    <path id="body_purple" class="cls-1" d="M546.65,603.9v3.69s5.1,9.85,12.9,14.46l-7.02-.85-37.63-35.72-18.07-13.54,4.04,6.66,58.68,60.3s-3.26,5.82-13.46,4.83-6.52-3.7-6.52-3.7l3.26,7.38-42.26,14.89-59.01,10.49-10.03.85s-7.94,1.7,12.35,0,38.02-5.39,49.39-6.8,50.77-17.65,50.77-17.65l9.95,10.89h-11.15l-14.6,8.96s-15.64-3.24-27.66,5.36l3.38,1.8s-15.31,7.94-29.96,4.54l-4.46.85,16.74,3.4,36.85-11.62,20.91-3.55s-71.36,23.39-88.09,21.12l-10.24,1.42-7.41-.74-4.11-10.6v18.14l13.21-1.28,2.35,2.7-14.21,24.66s-1.46,5.95-5.55,7.09c0,0-1.54,10.49-5.23,13.32,0,0,1.7,3.4-5.1,6.52s-6.8,10.07-6.8,10.07l-10.77,14.3-7.65,3.4,3.4,1.98-8.41-.85,4.72,3.12s-4.25,2.27-8.22,0-2.09,1.01-2.09,1.01c0,0-5.56,2.14-8.11,0s-32.03,7.35-32.03,7.35h-45.4s-3.12-3.4-1.56-13.96l-3.21-3.76-1.7-6.8-3.69,3.12s-7.37-63.5-3.97-79.37l1.2-27.14s-4.89-6.24-1.06-14.31l.85-9s-3.63-.28,1.23-5.46l-.15-6.24s1.98-1.28,1.04-4.54l-1.04-1.84,1.28-4.01-.2-3.28-9.42-20.17-5.54,7.47-6.24,11.09s-3.58-6.21,3.61-15.91l.12-44.56,1.56-27.18-4.06,1.95-5.37,28.28-3.76-14.59v-12.56l-.81-28.26s5.95-22.51,15.59-28.35l.85.68-6.5,10.49,19.81-15.86-.07,3.26-7.76,14.87-6.14,6.43s6.8-3.09,6.8-3.2,1.82-3.85,1.82-3.85c0,0,3.17-.2,3.22-.78s2.66-6.15,2.66-6.15l.33-.48-.28,4.43-16.91,36.86,2.27,4.06,2.46-9.64,2.74-4.09,1.8-4.7,9.12-11.26-3.25,19.76,3.25-.39,4.73-14.02,4.78-3.92-4.37-3.22,5.53-2.74-3.5-1.84s-2.71-5,.7-7.37l12.54-.85,23.95-3.89v2.38s-2.16,3.18-2.16,3.18l-10.26,5.87,1.13.9,5.73-1.57s-3.31,8.15-6.99,12.01l-1.09,5.1-1.53-.67s-8.16,10.87-11.93,16.06-9.37,10.68-9.37,10.68l-1.58,3.69-5.07.65-2.62,1.98,2.41,3.26-.24.55,4.28-.34,16.74-18.29,4.16-1.9,2.07,1.07,4.15-9.6-.92-.57-2.06,2.34v-2.83l3.89-6.09,10.71-11.02,36.78-12.71,22.49-23.91,3.12,3.31s14.36-21.64,14.83-25.89l1.04,3.99,5.39-4.56,3.4,2.46-3.31-6.24,6.24,3.21-1.61-5.63,7.75,7.42-5.76-3.59,4.44,6.92-6.05,3.85s1.98,2.5,4.44,1.44l.28,1.2-24.19,18.17,14.74-.78,5.2.76,12.38,6.33,6.76,5,5.24-1.01,14.46-4.84.97-1.71-8.9-9.89,1.07-.92,16.78,11.95-5.53-1.41,5.29,3.25-1.9,2.82-6.36,2.46-5.01-2.4-7.46,2.35,2.17,1.98s-4.3-3.39-3.59,2.64,8.13,3.74,8.13,3.74l3.97,5.1,3.97-1.13,4.06,2.14-.76.86,4.13,1.44,20.25,5.22-2.74,4.67,5.62,6.95h-2.88l-9.26-4.96s2.79,3.83,5.34,4.54.57,2.53.57,2.53l-4.54-1.68,7.89,5.24,33.17,21.31s23.66,15.62,24.89,33.06l-11.52-4.95-27.52-23.46-5.39,3.57-7.73-.48,34.68,27.5,18.17,11.27s4.02,2.34,2.85,8.26l-.89,3.12-7.65-11.08-18.14-13.32s-.85,4.25,11.62,15.87,7.8,19.94,7.8,19.94Z"/>
    <path id="green_shoulder" class="cls-12" d="M499.08,544.49l-2.94-2.16-.89-2.52-4.54-.8,3.26,6.99-6.1-.94v-5.25h-8.5l-4.77-7.6s.74-5.48-2.54-2.65-5.55,1.32-4.6-2.27-1.94,4.16-1.94,4.16l-1.27-8.77s2.46-6.16-4.35-4.84,4.35-2.7,4.35-2.7h5.27l-7.16-5.42-1.51,5.42-3.14-3.72-3.08,3.72-4.89.81v-4.16l-8.19,2.08-6.39-4.16-7.18,5.42s1.51,3.08,5.38,1.19,11.25-1.7,4.82,1.7-5.29.94-7.94,9.83-6.61,13.08-6.61,13.08l-.61,5.93s-9.34,21.36-9.02,22.97-10.77,10.24-10.77,10.24l13.61-36.15-3.77-.1s13.98-12.18,12.47-14.64-5.86-1.32-5.86-1.32l6.24-3.97,1.32-12.66-4.35,6.99-.57-5.67s-8.69,7.4-9.64,10.13-6.05,2.91-9.45,10.28,0,11.72-5.67,15.12-4.49,5.29-4.49,5.29l1.28,4.73-4.91,6.02,3.63,5.72,2.03-5.72,2.83-2.24,5.48-2.65-.76,40.25,6.99-9.26,14.17-25.23-2.27-6.89,3.97-1.18,6.07-11.49s1.3-9.78,6.78-10.84,9.11-2.39,5.5,1.02-10.51,6.73-10.51,6.73v1.78l6.85-.57s2.13.76-2.78,5.1-2.98.77-5.84,9.45.17,14.59-5.88,19.48-10.04,14.32-10.04,14.32l-10.42,22.43.43,6.5,3.78-3.43s-4.16-.73-.57-3.94,5.86-6.43,6.8-11.72,4.91-5.26,5.1-5.94-3.21-1.06.19-5.97,19.28-17.73,21.35-18.5,3.37-6.06,3.37-6.06l-7.53,2.46,6.07-5.29,8.47-.94s-4.51,3.21-4.43,6.05,4.43,2.29,4.43,2.29c0,0,5.47.35,0,3.19l-5.47,2.83.14-.94-3.52,2.67s-6.07.92-8.15,5.08-11.15,11.41-11.15,11.41h4.42l-8.19,9.19,4.16,1.7-5.29,4.16-5.86,6.43,1.51,7.1-5.22,7.11,5.26,2.9,8.46-13.62-4.72-1.63,7.18-6.96,5.31-4.72-2.6-2.65,13.92-21.73s5.98-2.08,2.8,3.02-7.25,8.73-5.5,11.45,4.11,4.99,0,5.56-5.24,2.08-1.08,2.46-4.16,7.44-4.16,7.44l-10.02,19.81-10.77,4.61-6.43,8.04,19.65-11.08s33.07-18.81,34.96-22.59,4.35-5.86,1.32-9.07,5.84-.94,5.84-.94l-2.82,2.83,1.7,2.83,11.72-7.75s4.11,2.42.64,4.61-13.68,8.68-13.68,8.68c0,0-5.01,9.02-9.31,11.38s-7,3.31-16.23,10.01-12.56,8.22-12.56,8.22l.64,11.23s12.2-3.82,14.63-4.69,3.27-3.08,3.14-3.67-10.72,1.42-10.72,1.42l4.88-3.34,8.19-3.13s.53-7.56.91-8.45,12.63-4.02,12.63-4.02l-10.56,8.05,4.35,3.15-4.35,7.75h-2.98l2.98,2.9,27.22-10.65,10.39-4.75,1.93,4.75s-40.05,14.24-48.02,19.15-7.77,0-7.77,0c0,0-3.69.52-6.38,4.61s-6.3,3.77-6.3,3.77c0,0,6.49,4.93,20.07.35s38.91-19.13,38.91-19.13l11.91-1.01s-11.34,9.93-24.19,14.92-17.01,4.87-17.01,4.87l1.15,2.3,5.66-1.95.19,3.74,41.76-10.15,23.24-12.34-13.04-1.39,9.07-12.5-23.3,8.59s6.85-2.82,7.61-8.59-1.13-6.71,3.59-7.47,4.91-5.18,4.91-5.18l10,1.21-3.73-8.69-19.31-1.26s10.39,3.9,6.99,7.11-5.15,7.45-10.06,6.8-2.08,3.21-2.08,3.21l-3.87,1.84-1.75-4.29,11.72-6.9s-3.72-6.83-9.7-1.66-16.76,5.34-10.52,1.66,14.12-6.89,14.12-6.89l-7.7-3.02,3.02-3.97,6.75,4.72,3.56-5.4s-5.59-5.18-10.69-3.29,3.59-29.84,3.59-29.84l-15.5-13.24,2.65-5.65s-2.36,5.61,7.75,8.1,13.93,9.28,13.93,9.28l1.06-8.32,3.71-7.59-9.2-9.43Z"/>
    <path id="_x31_4" class="cls-20" d="M449.07,699.79l-5.5,13.4-8.31,12.91s-.41,3.26-3.04,5.8-5.66,13.18-5.66,13.18c0,0-1.73,5.29-6.94,8.56s-.43,2.07-6.38,10.58-6.01,10.8-12.43,14.08,2.37,9.02-10.25,8.88-13.46.15-17.15,0-8.79-1.42-9.5,1.56,33.45,3.81,33.45,3.81h83.34s37.84-15.14,37.84-15.14c0,0-11.34-17.57-13.46-17.57s-37.7.43-37.7.43l8.21-20.11.44-11.58-8.69-4.32-7.94-10.2-10.33-14.24Z"/>
    <path id="_x31_3" class="cls-18" d="M449.07,699.79s-5.54,13.93-9.54,19.68-4.34,8.36-7.31,12.43-3.51,10.89-6.78,13.1-1.85,6.43-7.52,8.64-1.06,7.59-9.44,15.68-14.06,10.62-14.06,10.62l3.4,1.98h-8.12l4.43,2.27s-5.83.69-8.22,0-3.16-2.11-3.16-2.11l1.06,3.12s-4.04.42-6.31-.99-33.84,8.35-33.84,8.35h127.68s-1.44-30.32-1.44-30.32l7.09-32.25-9.5-7.29-.71,18.14,1.7,2.13-4.54,10.68s1.13,1.65-5.25,2.92-7.51,1.13-10.49,3.97-24.8,9.07-24.8,9.07l-1.42-1.7,22.54-20.55s-.88-5.95,2.82-7.51,4.27-8.36,4.27-8.36c0,0,4.25-.05,5.1-5.98s3.51-9.72,3.51-9.72l-11.19-15.99Z"/>
    <path id="_x31_2.5" class="cls-2" d="M464.55,720.84l1.84,6.24-.92,7.65-.92,7.37-4.25,4.06s3.12-3.2,1.7,2.04-1,6.19-3.26,5.43-5.67-.48-8.64,3.06-5.53,6.94-5.53,6.94l15.02-6.52,10.35-12.9-.99-18-4.39-5.39Z"/>
    <path id="_x31_1" class="cls-20" d="M462.14,760.53h-5.39l-4.82,2.98s1.41-.31-6.31,2.25-5.17,3.56-10.84,3.98,3.12,1.7-4.54,2.13-5.95,2.69-5.95,2.69l-5.24.85-10.57,7.94-1.05-5.95-2.83,4.11s6.09,2.69-1.28,2.83-10.91,2.13-10.91,2.13l3.83,1.7-13.04,1.7h-7.8l-6.43,2.4,25.99.28,6.52-6.65s5.81-.57,4.68,2.27-3.4,4.37-3.4,4.37h25.09s6.52-12.03,6.52-12.03c0,0,6.66-1.98,2.55,3.97s-5.33,8.06-5.33,8.06l19.93-.28s-5.39-3.54-2.13-5.66,5.1-4.11,5.24-.14.28,5.8.28,5.8l16.46.27s39.38-9.33,39.67-9.9,1.7-16.16,1.7-16.16l-50.6-5.95Z"/>
    <path class="cls-1" d="M462.53,749.33s1.13-2.69-1.13-1.7-3.39,2.3-2.66,4.25,3.37,0,3.37,0l.43-2.55Z"/>
    <path class="cls-1" d="M459.98,715.18s-2.38.21-2.73,4.82-5.21,16.89-8.04,19.29-1.41,1.67-3.58,5.38-23.59,23.24-23.59,23.24l1.42,1.7s17.82-3.94,21.12-7.06,7.63-4.14,8.33-6.97,0-3.26,2.26-3.54-1.77-3,2.09-4.82,7.3-5.1,7.3-5.1l1.67-13.55-1.67-7.71-4.57-5.67Z"/>
    <path id="shirt_detail_base_base" class="cls-15" d="M550.72,667.4l-2.69.77-.59.66-2.71.65-3.03,1.31s-44.91,13.75-51.43,14.31c0,0-22.82,4.89-23.46,4.96s-1.63,0-1.63,0l-15.94,2.27-3.62.41,1.76.59.37,1.63,5.14,4.96,6.5,14.12s6.43,8.63,8.27,9.76,6.17,5.74,8.72,8.29,9.07,7.94,10.13,9.57-.92,3.69,2.48,4.54,4.11.64,6.45,2.62l-1.91.62,32.67,28.43-12.05,14.4,69.31.28v-25.59l-22.39-95.85-10.35-3.7Z"/>
    <path id="shirt_detail_4_base" class="cls-2" d="M318.7,651.38s-5.46-2.69-6.98,0,0,6.38,0,6.38l-2.94.85v5.81s-7.07,1.42-2.4,6.38,4.53,3.4,4.53,3.4l-4.53.85,3.39,2.55-4.99,7.37h-3.52s-3.4,7.37,3.54,10.49,9.21,3.83,9.21,3.83l-13.32,3.4,5.68,4.68s-6.56-1.56-5.98,1.28,7.95,5.81,7.95,5.81c0,0,5.95-10.77,5.53-2.06l-.85,4.04-11.06,1.42s5.76-4.25,7.56,7.65,1.07,14.27-3.15,20.41l26.92,2.13-1.56-2.27,3.69-2.83s5.81,4.11,8.65-2.13,3.54,0,3.54,0l3.83.99,5.1-1.7.89-3.81,3.38-9.61,3.31-1.32-1.63,8.31,1.01,3.75,3.27-2.47,1.87,2.6-2.3,4.97,5.33-2.13,1.61,2.55,7.23-13.32,3.97,2.55s5.24-5.24,5.95-2.55,0,5.24-3.97,5.81,1.7,2.41,1.7,2.41l-8.79,1.44-.71,3.8,6.8,1.42,5.2,8.79s6.42,2.55,3.16-6.09,6.89-2.02,6.89-2.02c0,0,5.3,2.59,6.01-3.22s25.51-49.89,25.51-49.89l-9.07-29.2,6.94-1.7-4.54-1.09,4.39-3.58.59-3.71-2.72.43-1.98,1.86-2.69-1.86,2.83-10.19s5.71-1.97-4.11-2.13-15.45,0-15.45,0l8.93-5.2v-6.7l-4.96-.99h-13.18l7.23-11.76-6.94-15.59.43-34.72-1.98,3.12.28,23.68-6.01-28.6s-4.05,2.46-2.77,13.47,1.84,14.27,1.84,14.27l-5.44-18.53s-8.45,65.58-8.59,66.01-39.69,21.83-39.69,21.83l-16.87-9.78Z"/>
    <path id="shirt_detail_3" class="cls-12" d="M365.18,566.51s1.11,1.61-.76,6.66-4.3,11.08-4.12,18.31l-2.13,1.59.85.18-1.63,7.37-2.73.5s.67,2.91-.92,3.3-2.27,0-2.27,0l1.59-4.54s-.71-2.09-2.23-2.13l-.64,10.2s.99,2.66,2.69,1.49,3.54-2.41,3.54-2.41c0,0,1.59,2.41,3.47,1.17s2.73-2.37,2.73-2.37l-1.28-1.52,2.41-2.23s2.16.74,1.98,3.86-.74,5.03.57,6.45l4.57-4,3.31-63,12.66-30.24h1.32l-6.61,148.35,41.95,20.03,8.06,34.02-4.94,4.54-6.38,8.43-2.69,4.32-10.7,6.17-4.75,1.35-1.42,2.83-7.49,4.49s-3.71.8-3.59,2.98c0,0-3.28,3.21-5.55,3.71s-4.2-.4-5.65.47-3.05.69-3.05,2.55.12,1.87.12,1.87l-1.65.99s-3-3.28-2.98-6.43c0,0,3.52-3.83,4.63-3.97s5.65.45,5.65.45l.24-1.96-4.96-.45s-1.2-2.57,1.82-2.57,7.3-.12,7.3-.12l1.77-.76-1.02-1.94.14-1.98-2.95-.24s-.9-.47-.87-2.67,1.63-1.2,1.63-1.2c0,0-.14.99.94,1.98s2.95,1.87,4.23,1.23,3.9-1.42,4.49-4.8.38-5.31.71-6.43-.09-1.94-.8-3.99l2.5-1.02s1.04.17,2.03.8,1.58,1.28,3.19.12,5.39-4.25,5.39-4.25c0,0,1.2-1.11.8-3.57s.19-3.54-1.75-3.26-4.09,1.61-6,2.91-2.95,1.77-3.78,1.32-1.91-2.03-2.65-2.15-2.06-.76-3.09.71-1.98,2.81-2.62,3l-1.04-1.46s-.28-1.18.17-2.34c0,0,.28-1.49-1.06-2.34s-3.66-.73-5.06-.02c0,0-.31-.38-.47.73s-1.28,9.05-1.28,9.05l-1.84,4.13-4.51-1.3v4.58l-4.11,5.5-1.87-2.6-3.12,1.44-1.42-1.42,1.89-9.61-3.31,1.32-3.38,9.61s-5.67.28-6.52-.61l.21-.92,4.8-1.61s-3.4-1.49-6.64-1.56c0,0-2.41-.69-2.48-2.46s.09-2.79-.28-3.9-1.13-4.65-.21-5.95,2.48-1.8,2.48-1.8l-2.72-1.02s-1.3-3.54-2.53-3.94-2.1-1.13-4.44-.09c0,0-.92.14-1.35-.09s-1.7-.64-1.7-.64l.19-.73,5.86-.19,1.42-1.25s-.05-1.18-2.83-1.02-7.49.69-7.49.69l-1.09-2.88-5.36,3.69s2.55,2.79-1.65,5.72l5.29,1.18-.97,2.17s-1.96,2.74-5.24.5-5.01-2.69-2.95-4.13,2.88-1.89,2.15-2.62l-6.99.02s-.35-3.76,3.09-4.44,8.39-2.72,8.39-2.72l.07-1.84-.66.76-8.95-3.02-.02-.66,7.23-.78-.12-.66-10.18-2.06,2.27-6.83.85-.99,6.85-1.35.02,1.37,6.57-4.72-2.65-1.91-2.62,1.44-1.23,3.54-2.17-1.84s.24-2.95,1.61-2.98.99-.54.99-.54l.21-2.43-6.17-4.75-4.3-2.31s-.12-1.09,1.23-2.39,2.91-1.65,2.91-1.65l.94.45.19-.28-.69-.33-6.5-4.72-1.82-.54,1.09-2.2,1.04.28-.33,1.91.59.14s1.84-1.77,1.91-1.91,2.2-3.9.69-5.86-4.7-3.47-2.13-4.96,5.71-3.17,5.71-3.17l-.28-1.25-5.55.9s-1.02-2.15-.05-3.64,3.12-3.71,3.02-4.94l-4.11-.9,4.7-3.57v2.1l3.57.09-.87-2.83s4.25,3.35,5.08-1.13l-7.84-.14s1.68-2.76,4.35-2.13l3.52-.54-.26-1.28-4.28-1.37s3.24-3.05,4.39-2.86,3.05.85,3.19,1.23-.4-4.58-.4-4.58l-4.49.54-.52-.92s4.39-.85,5.41-1.72c.54-1.39,1.02-2.6,2.39-2.34s2.62.61,3.4-.24,7.49-8.06,7.49-8.06l2.27,1.8,3.83.43s-4.87-8.5,2.22-17.15l3.9,3.05s-.57-1.61,1.28-3.71,2.06-2.6,1.7-6.28,3.26-7.16,3.26-7.16c0,0,.8-9.94,4.58-12.77Z"/>
    <path id="shirt_detail_dark_2" class="cls-18" d="M380.68,540.26s.94,4.54,0,6.8-5.86,10.02-6.8,33.83,1.32,37.42,1.32,37.42l-2.83,7.56-1.13-3.21-12.28-.38,2.08,1.32-6.43.76v1.51l11.72,2.46s-1.85,2.46,1.53,3.4,12.45.76,7.16,3.02-6.61,3.4-11.72.94-6.61-1.7-10.58,2.83-7.75,6.61-4.72,0-1.89-15.5-2.65-4.91,1.89,17.01-3.21,10.58-4.16-6.8-5.1-6.43-6.99,6.05-6.99,5.1,3.78-6.61,3.78-6.61l-7.18,5.29,3.59,3.78,4.72-.76-12.47,7.56,3.02,2.46-3.02,1.89,2.27,4.16h-4.35l3.21,2.65s-6.8,2.65-.94,4.16,6.43,4.91,6.43,4.91c0,0-3.97,4.54-1.51,7.18s5.1,6.61,5.1,6.61l2.46-6.8s3.97-6.05,8.31-1.51,1.13,9.45,1.13,9.45c0,0-4.16-3.97-4.91-3.21s-3.59,3.21-3.59,3.21l7.56,1.51-2.27,6.24s-.19,2.46-2.46,0-2.83-2.27-2.83-1.13-1.32,2.08.19,7.56,12.59,6.24,14.42,6.43.51-2.08,6.18-.94,5.67.19,6.99-.94,1.32-2.81.76,1.9-2.08,7.93.76,4.9.57-6.43,4.35-6.8,13.42-1.51,2.27-3.4-17.39-2.65-9.45-4.16,13.61-1.7,13.61-1.7c0,0-7.56-.57-8.13-4.72s3.02-4.91,3.02-4.91c0,0,.19,3.21,6.8,2.83s19.28-5.67,19.28-5.67l2.83,4.16,6.43-5.1-2.65,5.86s4.16.57,5.29-2.83-3.4-7.75,1.89-4.35,10.39,5.67,7.56,6.61-8.31,3.97-9.45,2.46-1.32,1.51-1.32,3.97,1.51,7.75-2.46,7.56-.57,2.65.57,3.78-7.94,10.96,2.46,4.16,8.5-4.35,4.91,4.54-3.21,9.64-6.43,10.02-4.16,4.72-2.27,6.8,1.89,1.51-1.7,2.65-9.64,2.65-4.91,4.35,11.91-2.46,11.91-2.46l18.71-20.22s6.43-2.27,9.26-8.69,9.64-9.64,9.64-9.64v-4.54s-6.61,2.27-10.58-3.4-10.77-15.87-9.83-18.9-2.83-10.58-3.59-10.77,2.65-2.08-1.51.76-7.18-11.15-6.8-13.23,8.13-3.59,8.13-3.59l-11.34-.76s.76-.54,0-3.67l-.76-3.13-3.4-5.1,13.98-10.39s2.27-3.21-2.27-1.89-5.48.38-8.13,4.72-6.05,3.78-6.05,3.78c0,0,2.08-3.02,2.08-8.69s-4.72-4.16,0-5.67.57-2.65,4.72-8.5,13.04-19.09,14.36-20.22,8.13-8.13,11.34-10.2,3.97-5.48,3.97-5.48l-8.69,4.54,5.1-10.02-6.8,1.13s3.4,2.46.19,6.61-13.42,17.01-13.42,17.01l-7.94,11.91s-5.48,6.05-2.83-3.59,4.54-13.23,3.97-17.2-5.1.19,1.51-6.43,6.24-6.24,10.02-14.74,11.34-22.87,11.34-22.87c0,0-3.97-.19-8.88,7.56s-2.08,6.8-5.86,9.45-3.21-2.08-3.21,4.35,5.1-1.51-1.13,6.99-7.75,18.52-5.86,1.13,3.21-18.33,4.54-19.09-3.97-4.91-3.97-4.91c0,0,4.35-.94,5.86-3.4s2.46-5.29.38-6.8-2.83-1.51.94-3.97,4.35-4.72,4.35-4.72c0,0-.19-2.27-4.35,1.13s-6.61,9.45-6.61,9.45c0,0-3.78,7.37-2.46,3.02s-1.51-3.59-1.51-3.59c0,0,.94,3.4-1.13,7.18s-3.97,1.89-4.91,8.69,2.65-12.09.19,13.42-4.91,15.31-1.51,36.85,8.5,30.05,3.4,21.54-7.18,1.51-7.56-15.69.76-11.15-.38-22.49-1.51-13.8-2.27-15.5-3.02-6.43-2.27,6.8,3.12,33.07,3.12,33.07l-3.5-8.5,1.32,15.87s-5.97-34.58-7.05-39.87-.89-5.48-1.27-8.13-.38-3.59-.19-9.26.38-8.88.57-11.53-.57-3.59-.57-3.59l-1.7-.57Z"/>
    <path class="cls-13" d="M448.41,696.13l4.49,2.58,5.84,14.41s-1.88,1.63-4.43,7.72-19.42,35.72-29.06,39.69c0,0-.14-6.48.85-7.78s2.69,0,2.69,0c0,0,5.95-3.7,9.64-15.33s12.19-28.53,12.19-28.53c0,0,2.1-6.35-.57-9.11l-1.65-3.66Z"/>
    <path id="arm_base" class="cls-20" d="M574.12,658.83l1,6.1c.71,3.28,1.66,8.57,1.7,8.67.36.92.27,1.48,1.7,10.63,0,0,0,1.61,1.85,10.4,1.69,8.07,2.31,12.91,2.4,13.65,0,.07.02.13.03.2.38,1.85,5.84,28.48,7.21,38.73s3.4,25.23,4.11,34.72c.29,3.9.49,6.51.62,8.23s-1.24,2.99-2.88,2.86l-4.42-.35c-1-.08-1.87-.72-2.26-1.64l-7.74-18.77c-.03-.07-.05-.14-.08-.21l-11.16-35.18s-13.61-50.46-13.61-51.45c0-.82-1.45-8.1-1.95-10.63-.11-.56-.04-1.13.2-1.65l2.24-4.79c.24-.51.63-.94,1.13-1.21l2.84-1.57c.1-.05.2-.1.3-.14l1.47-.59c.1-.04.19-.08.28-.13l7-3.79c.36-.2.76-.3,1.17-.32h.16c.35-.02.69-.1,1.01-.25l1.09-.5c.49-.22.9-.59,1.18-1.06l1.89-3.16.45.67c.37.81.98,2.14,1.07,2.52Z"/>
    <g id="shirt_top_details">
      <path class="cls-18" d="M552.46,635.69s-1.32-6.61-13.8-14.93-16.82-9.26-16.82-9.26l10.2-1.7s-13.42-5.1-13.8-5.67-10.2-14.17-11.72-16.82,1.51-.38-4.91-4.16-7.18-6.61-7.75-9.45-2.46-3.4-5.1-3.4-2.83.38-3.21-3.21,3.21-3.21-1.89-6.05-6.8-.19-7.37-3.78,2.46-4.72-1.7-4.72-5.48-.76-7.18,2.27,0,4.54-2.46,1.7-2.65,2.27-2.65,2.27l-5.48.76v3.02h-2.65l-1.7,3.97s1.13.94,7.75-1.7,17.62-2.65,11.83-.38-19.58,6.61-19.58,11.34,3.02,8.31-.76,9.64-6.05.76-4.35,5.29-3.98,8.69-.57,8.31,7.57-2.65,7-4.16-4.91-3.02-1.51-8.31,3.4-9.45,8.5-9.45,8.13.76,6.99,4.35,4.28-3.02,4.28-3.02c0,0,3.85,3.59,3.85,4.35s-5.86,3.97-5.86,3.97l13.04.38s-4.16.38-7.56,5.67-4.91,6.61-5.1,7.37,6.43-8.88,12.47-8.5,8.88-.94,2.27,4.91-3.21,9.26-9.83,12.47-6.24,4.72-9.64,9.83-6.43,10.39,1.89,5.29,10.2-9.26,10.2-9.26c0,0,4.54-3.97,5.48-6.61s-5.48-10.39,5.29-6.61,18.71,1.7,15.31,5.67-3.59-.38,2.46,4.35,10.96,5.1,12.28,4.35.19-3.59,3.02,3.4-.19,8.13,7.56,7.94,6.43-1.13,7.75,1.51,0-2.03,5.48,1.35,3.59,3.57,6.8,4.51l3.21.94Z"/>
      <path class="cls-18" d="M497.66,620.38s.87-.87.45-1.21c-.36-.3-1.68-.2-5.37,1.21-7.94,3.02-14.74,9.83-20.41,9.07s-7.18-1.7-7.18-1.7v2.48l-7.37,4.13s2.08,2.27,6.8,1.32,12.31-2.98,13.42-5.46,6.99-2.1,8.69-.97,1.32,1.15,2.65-1.79.38-1.62,3.97-2.94,4.35-4.16,4.35-4.16Z"/>
      <path class="cls-18" d="M503.52,630.23l-12.47,5.46s3.21,2.46,0,3.21-7.37,1.51-7.37,1.51c0,0-2.46,3.21-8.5,5.67s-26.65,11.15-26.65,11.15l-2.82,2.83s8.87-2.08,9.62-2.46,26.27-9.45,30.43-11.53,10.2-6.61,12.47-5.86,0,.92,2.65-4.54l2.65-5.46Z"/>
      <path class="cls-18" d="M510.51,638.9s-2.08,4.35-6.99,4.72-1.32-1.7-6.99,3.21-2.46,6.24-11.91,9.26-14.74,5.29-15.69,6.05-3.4,2.46-3.4,2.46c0,0,2.27-.19,3.78,0s-.38,2.46,10.77-2.46,11.15-5.86,13.04-7.75,4.16-1.51,3.97.76-12.47,6.61-.19,2.27,12.85-3.78,16.44-6.24,5.48-3.4,8.5-4.35,5.67-2.62,6.24-1.69,1.51,3.41,1.32,0,2.65-7.95-3.78-3.79-.94,3.21-11.34,6.61-12.85,1.7-10.77.38.76-.94,2.65-1.51,2.65.78,4.35-1.69l1.7-2.47-1.7-3.78Z"/>
      <path class="cls-18" d="M452.68,613.01c-1.89-.94-1.7-3.4-3.78,0-1.92,3.15-7.89,5.49-3.38,3.87.36-.13.8-.29,1.31-.47,6.8-2.46,5.86-3.4,5.86-3.4Z"/>
      <path class="cls-18" d="M440.21,622.27c2.08.76,3.62.38,5.5-1.32s6.33-3.35,2.59-3.54-5.44.37-6.77,2.62l-1.32,2.25Z"/>
      <path class="cls-18" d="M446.63,631.15c-.47.14-.66.11-.77.04-.32-.19.11-.61-4.15,2.79-5.67,4.54-6.43,1.32-7.75,4.91s-.57,6.61,2.83,3.59,9.83-1.11,10.58-5.09,2.35-6.33,2.35-6.33l-3.11.08Z"/>
      <path class="cls-18" d="M432.08,645.15c-2.65,4.15-3.97,6.15-2.46,6.95s1.32,2.04,2.46,0,2.27-3.37,2.08-4.88-2.08-2.07-2.08-2.07Z"/>
      <path class="cls-18" d="M482.35,632.67c-3.02.76-1.89,1.51-4.35,1.32s-1.68.84-3.39,1.93,1.31,3.36-4.92,2.98-5.67-2.75-8.69.04-5.67,2.44-6.24,4.79.94,3.67.94,3.67c0,0,3.97-2.46,7.94-4.72s9.83-4.13,14.36-5.28,7.18-2.66,6.24-3.79-1.89-.94-1.89-.94Z"/>
      <path class="cls-18" d="M548.68,595.82s-27.4-19.65-27.97-23.62-1.32-6.05-4.16-10.39-6.99-7.16-10.58-9.34-2.65-3.13-4.35-4.83-6.43,0-6.43,0c0,0-5.29,1.7-.94,2.27s7.94,1.13,7.94,1.13c0,0,.76,3.02-.94,4.16s2.46,3.97,5.29,9.64,5.29,14.17,11.72,17.76,30.43,13.23,30.43,13.23Z"/>
      <path class="cls-18" d="M493.26,551.22s10.63,8.13,10.25,11.91-2.37,1.13-5.82-1.89-4.96-3.24-7.6-3.13-5.67-1.59-5.67-1.59c0,0,2.46-.57,5.48-2.08s3.35-3.21,3.35-3.21Z"/>
      <path class="cls-18" d="M496.15,522.68l2.08,4.72h3.78s-5.86-5.29,8.5,8.88,17.2,18.9,22.87,23.06,9.07,7.37,11.72,10.96,2.27,5.1,3.59,6.05,4.35,6.24,3.78,2.27-.76-10.2-2.08-10.96-4.16,3.73-6.99-2.67.57-9.99-9.07-18.12-13.13-12.47-21.78-16.44-16.39-7.75-16.39-7.75Z"/>
      <path class="cls-18" d="M524.3,660.07l-6.99.85-25.04,8.88s10.2-.66,10.58-.76,17.1-5.76,17.1-5.76l4.35-3.21Z"/>
      <path class="cls-2" d="M542.83,523.3l-10.49-22.64s-11.61-16.03-16.44-18.87-12.37-6.69-12.37-6.69l-6.93,2.17,15.45,9.35.5,1.84s17.39,15.41,22.07,23.13,8.22,11.69,8.22,11.69Z"/>
      <path class="cls-2" d="M508.36,491.96l3.72-.03s20.4,18.48,23.8,24.72,6.95,9.5,6.95,9.5c0,0,7.65,10.77,8.07,23.1s.99,14.88.99,14.88l-16.3-23.1.71-.71,5.53,2.83-5.42-9.2,6.37,5.3-18.44-29.53-13.85-12.87-2.13-4.89"/>
      <path class="cls-2" d="M559.55,611.27s1.69-11.01-7.65-17.2-14.73-11.72-14.73-11.72l11.25,14.46-2.85,6.26s1.83-5.48,6.96,1.51,7.02,6.68,7.02,6.68Z"/>
      <path class="cls-18" d="M291.98,474.62l-5.02,49.22-1.49,2.85s-1.53-.8-.59-5.51-1.73-6.33-1.73-6.33l4.16-4.66.78-17.94,3.88-17.63Z"/>
      <path class="cls-18" d="M334.79,487.61l-27.92,38.09-17.04,14.91s-.86-1.49,2.45-4.97,1.93-6.27,1.93-6.27l6.05-3.62,10.23-12.82,24.3-25.31Z"/>
      <polygon class="cls-18" points="337.08 478.12 335.19 479.51 337.08 481.49 338.92 480.48 331.72 490.26 330.65 487.61 332.45 487.17 330.65 484.8 331.41 481.3 333.39 482.99 334.79 482.34 333.2 478.12 337.08 478.12"/>
      <path class="cls-18" d="M344.14,468.07l-.03,8.86,1.19.59-4.76,6.98,4.55.3,1.29-5.07,1.03-.5,4.23.22,34.32-22.42s.82-4.71,4.42-5.99,6.29-.55,7.02-2.14.8-2.17.8-2.17l.94.99,3.8-2.26s9.17-18.38,9.93-21.12,1.13-4.16,1.13-4.16l-3.12-1.89-7.94,3.11,1.99,1.33-3.31,2.55s-8.1.74-9.92-1.61-2.43-2.28-2.43-2.28c0,0-8.46,6.38-9.2,9.86s0,15.19,0,15.19l-3.77-3.78s-2.17-.66-4.81,4.44-5.67,10.3-11.24,12.19-16.02,8.71-16.02,8.71l-.07.07Z"/>
      <path class="cls-18" d="M345.95,460.53l-14.49,7.62s.18.79,1.64.48,3.35-1.42,3.35-1.42l-.99-.69,1.32-.56.33.75,1.87-1.2-.28-.68,1.34-.79-.07.9,5.55-3.26.42-1.16Z"/>
      <polyline class="cls-3" points="326.65 490.51 321.41 498.36 326.65 492.11 326.65 490.51"/>
      <polyline class="cls-3" points="328.28 497.36 323.25 501.62 325.49 501.17 328.28 497.36"/>
      <path class="cls-3" d="M410.7,647.25l-6.52.78s.5,2.52,2.94,2.41,3.9-.51,3.9-.51l.36-1.4-.69-1.28Z"/>
      <path class="cls-3" d="M398.06,662.91s-.17,2.58,2.21,2.72,1.18.61,1.18.61c0,0-1.81,1.03-2.48,2.59s-1.46,2.28-1.46,2.28l-2.62-1.25s-.32-3.97,1.13-5.35,2.03-1.59,2.03-1.59Z"/>
      <path class="cls-3" d="M450.63,708.9l-12.38,23.15-6.03,14.65,1.21,1.51s1.13-4.44,4.72-4.63,4.35-3.4,4.35-3.4c0,0-4.06-3.02-.19-5.95s2.27-4.16,3.21-7.37,2.08-1.98,3.02-2.93.09-4.54.09-4.54l1.32-4.25,2.08-1.23s-2.93,1.04-1.42-1.04,2.27-3.97,2.27-3.97h-2.27Z"/>
    </g>
    <path id="arm_bottom_base" class="cls-3" d="M474.87,730.63l-3.87,18.05s-3.87,9.35-11.34,11.72c0,0-5.29,4.54,9.54,4.54s29.95.47,34.11,2.83,5.1,3.12,5.01,5.86-1.89,4.72-1.89,4.72l-17.01,5.57s-2.27.94-2.27-2.08-1.61,2.74-1.61,2.74l-8.03,1.8-6.14,6.16h44.6s-.76-2.1,3.59-2.19,5.86-3.31,5.86-3.31l4.54-1.04.66-1.89.76.38v2.83l5.76-.85-1.8-3.78s4.54,2.55,5.86.19,1.32-2.46,8.69-3.59,10.11-3.02,11.34-4.54,6.52-.47,6.52-.47l-3.21-1.8s-.28-3.87,3.21-3.5,0,1.61,0,1.61l7.56,4.82,4.63,6.99-3.12,1.51s3.59.09,3.97,3.59,0,4.75,0,4.75l5.01.28s.57-11.93-7.75-21.85l-3.69-6.9.66-4.44s-5.67-13.51-5.29-19.75l-4.44-10.87-4.82-19.84s-1-7.56-.93-7.84-4.18-16.91-4.18-16.91c0,0-3.97-2.93-3.21-8.5s1.04-8.03,4.91-8.41h1.61l-1.61-1.94-6.35,2.11s-2.72,7.39-3.19,11.73-.85,6.9-.85,6.9c0,0,2.36,2.83,2.74,6.43s.94,4.25,2.65,5.48,2.27,7.65,2.27,7.65c0,0-4.16-1.32-3.5,1.98s1.89,8.88,1.89,8.88c0,0,1.7,7.46,5.48,9.26,0,0,1.13.07.38,3.2,0,0-.28,2.57,3.59,5.59,0,0,2.93.28,2.08,6.9l1.23,4.54-.85,7.37s2.83,2.27.47,5.67-3.21,4.44-3.21,4.44c0,0,3.21-2.17,2.46,1.13s-1.8,4.63-1.8,4.63c0,0,2.36-4.16-2.46-6.71s-8.79-3.78-10.96-2.08-2.93,4.44-2.93,4.44l-1.89-2.17-1.89,1.98-1.61-1.51-5.1,2.93s-.47-4.72-5.39-5.2-8.06-1.89-8.06-1.89l-8.1-7.28s4.35,2.83,5.39-.28,2.93-5.01-1.32-5.76-10.68-7.56-10.68-7.56l-2.27.19-2.36-1.04-2.36.85,3.78,1.32v1.32l-11.81-.76-.76,1.04s5.48-.19,13.23,11.15c0,0-5.1.38-8.98-1.7s-7.09-1.51-7.09-1.51c0,0,3.78,3.69,1.51,5.67s-2.83,2.46-6.61,1.7-10.3-1.23-10.3-1.23l-.85-1.47s3.31-11.86,3.02-16.2-.86-6.8-.86-6.8Z"/>
    <path id="face_outline" class="cls-5" d="M365.99,333.52s.04,14.32-.19,18.24c-.2,3.3-1.89,14.81-2.65,16.87-1.03,2.77-7.87,18.78-9.87,21.67-2.57,3.71-7.15,13.44-9.64,17.01-4.12,5.92-19.7,16.85-25.25,19.33-5.55,2.48-17.18,8.19-19,8.53-1.81.34-14.51,1.61-14.51,1.61h-5.56s-5.32-2.69-8.01-5.03c-2.69-2.34-6.78-8.08-11.62-14.15-4.84-6.07-8.67-11.42-10.93-14.87-2.26-3.45-6.43-9.62-8.08-12.84-1.65-3.22-4.94-9.18-6.38-13.81-1.44-4.62-3.63-13.05-3.63-13.05l-6.98-6.97-5.88-11.6-3.12-13.27,7.16-46.79,7.47-29.06,35.55-12.52,42.27-1.32,34.11,8.41,16.38,29.2,7.94,14.24,11.57-2.93.14,13.89,7.13-5.57,2.17,9.25-7.17,5.86-7.95,16.04-5.47,3.63Z"/>
    <path id="arm_middle" class="cls-18" d="M567.99,660.55l-1.31.08-7.72,4.15.19,2.2-2.55,2.82s1.15,13.8,7.81,19.75l-2.11,12.9,1.62.71,1.35-1.98s1.77,7.44,3.33,11.27,3.26,12.76,3.26,12.76l-1.2.64,4.39,3.76,4.25-5.24-11.3-63.8Z"/>
    <path class="cls-2" d="M570.34,659.6l-2.37.92s.46,2.2.46,3.33-.5,1.63-.28,3.72.5,4.36-.5,5.35-1.28,1.38-2.83,1.56c0,0,.92.99,1.2,2.02s.07,2.3-.53,3.76-.74,2.59-.11,4.11,1.28,3.37,2.83,4.22c0,0-1.42,1.98-1.38,3.19s.18,2.06,1.28,3.61,1.81,2.3,1.24,3.33-1.1,1.98-2.06,2.34l4.18,4.71s-2.73.85-2.02,2.98,3.01,4.39,3.54,5.88,1.91,5.78,1.63,7.72-.92,4.75-.39,5.74,1.24,2.2,2.48,3.19c0,0,1.42,2.02,2.16,6.06s3.84,22.45,4.97,26.52,2.08,6.9,3.59,8.98c0,0,1.04,5.29,1.61,10.11s1.89,9.6,1.89,9.6h3.02s-1.89-23.3-2.17-26.51-2.36-17.2-3.4-21.83-2.55-13.68-3.97-18.13-5.03-23.92-5.03-23.92c0,0-2.31-8.01-2.6-11.98s-.28-7.87-.28-7.87l-1.06-.5s.14-4.25-1.28-9.78-3.83-12.44-3.83-12.44Z"/>
    <path class="cls-7" d="M541.83,670.75l.53,1.03s-2.13,1.49-4.11,3.05-3.54,2.76-6.45,2.69-3.33.71-2.62,2.55l-5.31,3.12s-.78,3.33-2.98,4.25-2.13-.85-3.69,2.83c0,0-2.83,2.34-6.09,1.7s-9.85,5.03-9.85,5.03c0,0-2.48,2.76-5.74-.35,0,0-10.28-.21-12.12,2.34s-1.13,4.04-2.69,4.11-4.32-.43-7.44-1.06-5.46,1.28-6.02,3.61-1.71,3.25-1.71,3.25l2.07,2.35s1.06.92,4.68,1.98,7.51,2.2,8.15,4.54,2.27,3.9-.5,4.54-4.75,2.41-4.04.5.92-2.98,2.34-3.19,2.06-.14-.78-2.06-4.46-3.9-4.32-1.7,1.06,8.5,1.06,8.5c0,0-8.86-2.06-11.83-7.02s-7.8-12.19-7.8-13.46.57,1.63,2.48,1.13,2.76-1.84,1.7-4.04-1.91-5.1-3.75-5.03-2.75.78-2.08,2.76-5.13-3.13-5.13-3.13l-.38-3.21s7.38-.81,9.37-1.1,5.95-1.2,7.72-1.2,2.62,0,5.88-.71,11.27-3.12,13.18-2.55,6.17-.21.35,1.77-10.63,3.69-5.24,2.98,8.65-.92,10.84-1.35-.4-.14,2.77-1.2,6.86-1.13,7.29-1.13-1.84,0,1.28-.07,4.46.28,6.52-2.06,5.39-3.12,3.47-3.69-2.2-1.35-4.46.21-1.77,4.11-4.75,3.12-4.82-1.58-.78-2.68,28.35-8.09,28.35-8.09l12.65-3.87Z"/>
    <path class="cls-10" d="M423.13,732.89l3.26,1.98-5.81,3.69s2.27,3.4-3.97,6.38-1.87,4.39-1.87,4.39c0,0-7.06,3.54-8.76,9.64s-3.26,12.9-6.94,14.03-5,1.89-3.26,3.54-10.63,4.54-10.63,4.54c0,0-2.69-3.54,1.56-6.24s2.13-5.24,2.13-5.24c0,0-2.69-.99,3.97-2.13s7.8-.57,6.66-4.68-.28-6.09,3.12-7.23,9.64-13.87,13.61-16.29,6.94-6.39,6.94-6.39Z"/>
    <polygon class="cls-24" points="205.81 732.28 198.63 743.43 188.99 749.66 177.09 773.85 168.39 785.95 167.26 792.55 291.28 792.54 287.45 756.28 286.24 725.66 205.81 732.28"/>
    <path class="cls-13" d="M475.63,731.32s.43,11.89-1.19,16.88-4.08,5.83-1.13,6.48,10.31,2.22,13.42,1.35,4.54,1.81,3.12-2.4-4.48-5.25-.39-4.73,8.85.61,5.42-1.09-3.05-2.08-6.55-1.23-1.59-.09-1.46-2.78-.2-2.9-2.88-5.06-8.36-7.43-8.36-7.43Z"/>
    <path class="cls-18" d="M479.73,738.28l-.85,10.87s-1.23,3.21,1.8,2.46,6.43,0,4.44-5.43-5.39-7.89-5.39-7.89Z"/>
    <path class="cls-7" d="M469.94,725.66c5.73,5.13,9.52,10.19,12.23,11.7s5.12,4.08,6.68,4.89,7.23,4.32,8.79,5.96,3.03,2.65,5.03,3.06"/>
    <path class="cls-7" d="M467.26,743.81c0,1.67-.15,5.89-2.9,8.94s.73,7.25-4.7,7.64"/>
    <path class="cls-7" d="M448.93,763.65c-8.5,2.24-11.91.93-19.94,4.61s-12.12,2.1-17.6,6.73-2.39,4.27-13.32,6.09-7.34,3.52-19.62,5.6"/>
    <path class="cls-7" d="M570.38,660.17s2.85,6.57,4.5,15.18,2.45,22.83,4.52,30.16,4.25,8.88,6.42,22.81.16,8.55,4.11,24.42,2.82,1.52,4.04,22.87"/>
    <path id="red" class="cls-3" d="M284.99,732.28v4.54s-4.54.76-10.77,4.91-11.86,5.86-16.79,9.83-4.18,5.86-8.34,9.26-7.94,3.97-9.64,9.64-2.83,10.39-2.83,10.39l4.72,1.51s-14.17-1.3-18.52-3.77-6.43-2.09-12.28-2.66-3.97-2.83-3.97-2.83l10.2,1.89s4.35-.38,3.59-3.59-1.7-10.2-1.7-10.2l-3.59,2.27-1.51-1.23,1.51-6.71-3.02,5.86s-5.29-5.1-10.58-4.06-10.58.47-7.37,4.91,8.88,3.69,6.61,6.71-1.13,6.43-6.05,5.67-2.65,2.46-2.65,2.46l3.21,6.05-18.14,2.83s5.48-.57,8.31-5.67,4.16-11.15,5.67-9.64,2.46,5.86,4.91,2.27,3.78-6.45.19-6.44-7.56.01-4.16-6.22-2.83-6.24,7.94-5.67,13.98.2,14.17-.94.57.37.19-1.71-.94-7.4,3.59-3.89,67.09-15.77,67.09-15.77Z"/>
    <path id="_x31_5" class="cls-20" d="M284.8,724.53v10.96s-23.62,11.72-23.62,11.72l-26.08,2.27,6.43,12.75-3.78,10.87-8.13-6.63-11.91-14.16v-6.05l19.84-10.2,10.58-15.69s12.28-39.5,13.04-41.2,9.83-39.69,9.83-39.69l3.63-2.31.52,10.44,1.82,10.14,2.72,15.56.94,7.56-1.7,41.95,5.86,1.7Z"/>
    <path id="_x31_4-2" data-name="_x31_4" class="cls-18" d="M271.84,628.66l-3.2,6.56s-3.97,1.51-8.69,8.69-3.78,9.75-9.26,13.85-2.65-2.51-8.69,13.36-11.34,29.48-17.39,36.09-15.69,21.54-17.95,25.7-6.43,6.36-6.43,6.36c0,0-2.46.63-5.1,4.22s-12.28,20.22-12.28,20.22l-5.48,5.48s-9.35,12.9-8.36,15.45,4.11,2.41,8.93,1.13,4.82.57,8.08-5.95,4.82-12.76,6.94-10.49,3.54,4.54,4.25,1.13,4.11-3.26-.57-4.54-10.35-4.82-3.83-8.65,2.69-5.95,11.48-3.69,9.21,4.25,9.21-2.41,1.98-10.77,7.94-3.83,9.64,9.64,10.63,14.17,5.39,5.53,5.39,5.53c0,0,0-4.39-3.4-10.49s-6.52-11.06.43-15.45,8.36-5.39,8.22-8.22,10.06-8.36,10.06-8.36c0,0-4.96,7.09-1.84,7.51s11.2,4.39,14.46,2.41,5.39-6.24,5.39-6.24c0,0-2.83,3.69,2.27,2.98s6.94-4.54,6.94-4.54l4.82-.85-.04-34.9-1.95-3.23.71-2.83-2.98-9.5-1.13,1.84-2.55-8.36-5.53-.14s2.55.71.85-5.39-4.11-5.24-1.84-10.06,4.04-5.67,2.8-10.2,1.29-3.14,0-4.56-.39-7.35-.39-7.35l-.91-2.49Z"/>
    <polygon class="cls-2" points="251.54 664.81 249.84 671.43 256.12 670.67 251.54 664.81"/>
    <polygon class="cls-2" points="254 673.13 247.01 675.77 244.55 680.69 247.38 681.63 248.33 683.33 254 675.58 254 673.13"/>
    <path class="cls-2" d="M252.11,691.46s-9.26-4.16-11.53,0,0,3.4,0,3.4l11.53-3.4Z"/>
    <path class="cls-2" d="M236.99,700.91h5.29s5.86.38,1.32,3.21-9.26,3.97-9.26,3.97l-5.1,4.31,4.16,1.17s-5.86,2.83-7.18,6.8-10.96,10.58-10.96,10.58c0,0,3.78,3.4,0,5.67s8.5,3.02,8.31,6.05-3.21,2.65-7.94,1.32-4.54-1.54-4.72,4.05-2.65,4.83-2.65,4.83c0,0-11.91-3.39-15.5.76s-2.27,6.04-3.21,9.63-3.97,11.15-3.97,11.15l-8.5,11.53h-8.69l8.69-16.63s8.31-6.99,10.58-13.23,4.54-8.05,4.54-8.05l.19,3.32,5.1-5.1s-2.65-2.81,2.27-6.98,4.16,0,4.16,0c0,0,5.1,0,5.48-5.3s-1.32-4.54,3.4-9.45,8.88.94,10.77-8.13,6.43-12.66,8.88-13.98,3.02,3.21,3.02,3.21l1.51-4.72Z"/>
    <path class="cls-2" d="M202.97,779.71l3.49-5.21s.56.33,5.67-.56,10.74,2.28,14.56,5.39c4.8,3.89,11.43,4.91,16.16,3.59s15.69-3.78,24.38-1.51,22.53,6.17,22.53,6.17l-2.2-14.84,3.26-3.87,5.91,9.71s-1.73,5.41-.09,9.68l1.65,4.28h-24.45s-2.08-7.92-14.17-6.6-10.2-1.32-10.2-1.32l3.59,3.02-5.1.19,4.16,3.02-23.81-5.67-2.46,2.08-.94-2.83-6.24-1.51-2.46,3.02-.38-3.97-9.83-2.27s1.89,4.16-.38,3.02-2.65-3.02-2.65-3.02Z"/>
    <path class="cls-15" d="M284.99,736.81s-22.18,8.12-28.14,15.21-17.6,18.94-18.39,21.8-1.86,7.02-1.86,7.02l4.72,1.51s15.49-3.74,25.89-.94,22.3,5.26,22.3,5.26c0,0-4.21-10.83-3.28-17.8s-1.82-13.78-1.44-19.87.19-12.19.19-12.19Z"/>
    <path class="cls-27" d="M276.68,743.43s-12.33,7.62-16.3,10.21-11.76,7.55-13.75,11.95,4,2.44,4,2.44c0,0,1.52,4.08-2.45,6.34s-5.95-1.28-5.95-1.28c0,0-3.12,6.72-1.42,7.61s9.82-1.38,9.82-1.38c0,0,8.75-1.13,15.27.14s-4.68-4.25-4.68-4.25c0,0-6.04-5.33-2.73-6.35s4.29,3.37,4.29,3.37c0,0,2.41-2.98,6.52-.85s11.34.57,11.34.57l2.83,2.41,1.51-.43s1.46-5.18-2.93-5.92,1.56-9.95,1.56-9.95h2.62l-.98-16.01h-1.92l-.28,10.2s-6.52-3.97-5.39-5.39,1.98-1.98,1.98-1.98l-2.98-1.46Z"/>
    <polygon class="cls-27" points="287.02 775.51 283.76 777.21 284.8 779.9 280.5 779.9 282.49 784.44 289.34 785.95 287.02 775.51"/>
    <path class="cls-25" d="M276.06,746.73l1.61,6.52,2.65-3.26s.57,4.3.76,6.47-9.26,6.05-9.26,6.05c0,0-8.98-2.74-3.4-6.71s7.65-9.07,7.65-9.07Z"/>
    <path class="cls-25" d="M260.38,761.57s3.21,2.65,2.27,3.02-5.86-1.13-8.31,3.87-3.07,10.12-3.07,10.12l-2.13-3.03s3.12-2.74,3.12-5.86-.57-4.16-.57-4.16l8.69-3.97Z"/>
    <path class="cls-25" d="M272.85,773.1c-.38-.47-.47-2.08-4.06-1.61s-5.97-.09-5.97-.09l-3.76-.48,4.54,6.24s.85-3.12,4.44-3.12,4.82-.94,4.82-.94Z"/>
    <path class="cls-25" d="M272.85,778.01l2.74,2.27s1.3,3.12-1.76,1.32-4.66-3.59-4.66-3.59l3.69.58v-.58Z"/>
    <path class="cls-25" d="M277.48,776.69l1.13,1.9,2.46-1.9,1.89.95-3.78,1.6-.28.85s4.54,1.51,5.01,0,.38-2.64.9-2.92,1.84-1.32,1.84-1.32l-.76-2.74-2.74.94.57.76s-.76,2.17-1.65,1.04-1.84-1.8-1.84-1.8l-2.74,2.65Z"/>
    <path class="cls-13" d="M213.56,762.23s-2.68-5.41-9.05-4.9-13.92-3.55-11.01,1.79,8.54,7.61,8.54,7.61c0,0,2.69-2.07-.85,3.36s-8.33,5.43-8.33,5.43c0,0-1.74,2.61,1.1,5.2s-13.01,4.49-13.01,4.49h15.42l5.67-2.47s-4.54-1.94-.28-5.57,6.66-2.36,6.66-2.36c0,0-3.26-3.26.71-7.09s6.05-.94,4.44,1.16-5.72,3.52-1.46,3.52,5.15-.37,5.62-2.31,1.46-5.2-.8-5.06-3.35-2.79-3.35-2.79Z"/>
    <path class="cls-7" d="M168.93,786.67l-2.76,5.87h7.51v-2.94s4.74-1.66,7.26.64,8.47,2.02,8.47,2.02c0,0,1.84-2.44-1.13-2.66s7.8,2.66,7.8,2.66h5.67l-1.42-3.44-2.55.78-5.1-2.94,9.07.74s5.57-1.84-2.1-2.83-11.64,2.1-11.64,2.1c0,0-5.39,2.81-5.39,0s-4.68-.89-4.68-.89l-9,.89Z"/>
    <path class="cls-18" d="M272.85,792.54s1.04-1.87-2.22-2.58-7.56-4.15-7.56-4.15h-11.81l3.92,1.74-4.55.18s-1.41.94,2.7,1.44-1.23,1.68-1.23,1.68l-12.54-4.19-11.04-2.29-2.69,2.89-.94-2.83-6.24-1.51-2.46,3.02s2.79-2.46-.38-3.97-4.59,1.61-5.01.18-3.1-2.05-3.96-2.25,2.35,1.67.56,2.25-4.44-2.45-4.44-2.45c0,0,.38,1.87,0,2.45s-.52,2.79,4.87,4.52,7.94,1.45,11.34,3.29,3.54,2.58,3.54,2.58h50.13Z"/>
    <path class="cls-21" d="M205.73,774.81c-.29.1-3.84.46-4.3,2.63s-1.28,5.08,0,6.42,1.95,2.41,4.99,3.4,7.02,1.42,9.43,2.69,6.31,2.58,6.31,2.58h2.06s-4.82-4-9.07-4.78-9.92-1.13-10.77-2.91-2.69-4.63-2.2-5.15,1.23-.72,1.53-1.12"/>
    <polyline class="cls-19" points="269.86 630.23 268.64 635.21 259.05 645.03 252.98 654.45 246.33 660.33 241.23 673.13"/>
    <path class="cls-19" d="M237.91,685.34l-6.87,10.49-6.83,9.31-6.5,9.4-3.24,6.08-4.48,7.22s-4.59,7.77-7.18,9.61-7.68,6.05-7.68,6.05"/>
    <polyline class="cls-19" points="284.8 735.49 270.41 742.06 261.58 748.04 252.51 756.99"/>
    <polyline class="cls-19" points="265.38 734.47 252.11 734.47 244.55 739.28"/>
    <polyline class="cls-19" points="252.51 691.65 247.98 692.68 240.58 694.86 240.31 695.62"/>
    <polyline class="cls-19" points="245.33 703.84 236.92 708.09 233.3 709.58"/>
  </g>
  <g id="Face">
    <path d="M340.47,307.56s-29.86,3.4-40.06,6.24-19.28,6.24-21.92,7.94-4.35,1.13-8.69.94-3.21.94-4.35-.19-4.16-1.32-13.98-.38-33.26,2.65-35.91,2.83-3.78-.38-4.54,0-2.46,7.37-1.89,8.13,5.1,1.32,5.67,5.1,3.97,13.8,6.24,17.76,18.71,11.91,24.76,11.53,17.76-3.59,19.46-6.43,4.44-18.99,4.82-21.26,1.23-4.02,4.16-4.44,5.95.05,6.47.33.71.33,1.89,2.22,6.57,9.92,9.64,11.91,10.2,8.83,20.13,8.83,14.6-2.27,20.83-5.81c6.24-3.54,7.09-3.54,9.07-6.38s1.98-5.24,2.55-10.49-1.06-9.33,0-13.02,1.74-6.63,4.64-9.04,9.6-6.27,9.96-8.93.52-4.29-1.6-4.29-1.84.71-4.68,2.13-9.36,4.36-12.67,4.75Z"/>
    <path class="cls-28" d="M265.97,357.8c-1.61.61-10.11,4.72-16.77,5.1s-13.93.04-18.85-2.91c-5.6-3.35-12.61-18.35-12.71-19.96s-2.46-8.13.47-9.12,11.01-4.54,16.35-4.77,30.14-.66,31.8.71,4.39,7.92,4.16,10.16-4.44,20.79-4.44,20.79Z"/>
    <path class="cls-8" d="M285.5,325.44s-1.61,12.27,0,15.59,10.06,12.47,16.58,14.17,20.83.57,29.55-4.68,9.85-9.99,10.13-11.41-.43-11.27-1.91-16.02-2.55-8.65-6.09-9.64-20.34.5-24.52,2.13-23.74,9.85-23.74,9.85Z"/>
    <path id="hotbase" class="cls-6" d="M225.13,223.65l2.16-8.47,3.81-6.37,8.93-14.75,6.43-8.26,27.13-8.5,19.59-7.96,25.28,5.23,9.31-.98,8.55.98,5.39,5.42,11.15,3.58,6.91,6.56,3.3,10.36,5.95,8.65,6.52,8.92,1.31,3.62,2.08,4.6c3.55.76,1.85,7.45,1.85,7.45l2.69,6.35,3.12,4.76-15.26-6.01-10.43-4.14-9.75-.84-11.05-.98-9.82-.54-2.51.54-4.11-.54-4.11.54-6.52.85s-2.33-1.49-3.01-1.4-4.49-.09-5.34,0-4.66.47-6.09,0-4.41-1.96-6.25-2.28-5.8.18-6.16,0-3.19.18-5.11,0-4.46.32-5.6,0-4.06.11-4.06.11c0,0-2.62-.43-3.17,0s-6.23.07-7.08-.11-3.83-.25-3.83-.25l-2.66.25s-1.59-1.88-2.73-1.88-6.86-.97-8.39-.2-4.37.42-4.93,1.09-2.19.41-3.26.99-5.25-.32-5.81.11-2.02-.46-2.83.65-3.33.84-3.33.84l1.75-7.99Z"/>
    <path class="cls-12" d="M401.89,440.63l-10.11,21.26s-2.36-.19-3.97,1.13-6.14,6.9-6.33,9.45,0,3.4,0,3.4h-1.42l-4.82,7.75s-3.5-.19-4.63,1.7-1.98,5.2-2.93,2.27-.19-5.61-4.63,1.16-12.09,12.73-12.66,16.13-1.8,5.39-4.25,7.65-3.21,1.7-3.12,3.97-5.67,4.68-5.67,4.68l2.36-10.35,1.23.09-1.13,5.39,5.39-6.33s1.28-4.81,1.08-5.4l-4.15,5.35s-.74-8.45-4.57-10.22c0,0-2.78,2.28-2.16,4.74s-1.7,6.28-1.7,6.28l-7.04,14.27s-2.03,5.53-3.07,6.28-2.02,1.51-3.3,1.51l-.95,1.8-.94-1.28,10.87-24.38s1.32-3.64.61-6.09,1.8-2.83,1.8-2.83l1.18-1.94.14-5.48-4.16,4.11-1.09-1.18,1.37-1.75.43.52s.85-.52,1.56-2.6,1.09-1.89,1.09-1.89l7.61-10.54,4.25.71s.28-5.81,2.31-5.57,3.64,1.7,5.29,0,33.26-22.2,33.26-22.2c0,0,2.41-5.62,4.87-6.14s5.76-.99,6.57-1.98.8-2.17.8-2.17l.94.99,3.8-2.26Z"/>
    <path class="cls-12" d="M312.25,525.43l1.44.17s.4,3.71-1.44,6.07-15.17,28.54-15.17,28.54v-5.01l2.74-7.13,2.22-1.46,10.2-21.17Z"/>
    <path class="cls-12" d="M299.64,540.41l-3.83,2.41s-6.09,10.06-9.69,21.97c-3.59,11.91-10.68,37.65-10.89,47.75s-.6,8.5-.6,8.5l-1.49,1.03,4.61,22.96,1.28-1.61s2.31-.76,2.65-1.09.38-.47.38-.47c0,0,.24-.33.24-.52v-.47l.71-4.25,3.12-4.72-.09-1.56-2.03-1.28s.94-5.53,2.83-7.94c0,0,1.42-2.13.43-4.72l12.39-75.99Z"/>
    <polygon class="cls-18" points="348.07 538.99 343.33 537.29 340.46 542.34 348.07 538.99"/>
    <path class="cls-12" d="M366.55,525.07l-3.21,1.42,2.46,1.7s-4.44,3.4-6.85,8.03-3.69,7.23-3.4,9.73c0,0-.24,1.09-2.46,1.42,0,0-1.28.61-.33,2.31,0,0,.24,1.09-1.37.94,0,0-1.09-.43-.94,1.7,0,0-1.13,3.45-2.03,4.06,0,0,1.7,1.8,3.5-1.23l5.29-4.91v-4.3s2.98-.43,3.97-3.4,3.4-11.29,3.4-11.29l3.21-2.03s-.61-2.83-1.13-3.73-.09-.43-.09-.43Z"/>
    <path class="cls-18" d="M343.7,569.84s2.13,1.09.28,3.92-1.61,3.83-1.61,3.83c0,0-1.75-3.26-.61-5.06s1.94-2.69,1.94-2.69Z"/>
    <path class="cls-12" d="M271.42,526.69l.94,2.41-1.23,10.49-.47-2.55-3.07,5.91s-1.18-3.83,1.8-8.83l2.03-7.42Z"/>
    <path class="cls-12" d="M264.19,574.76l2.98,4.68-3.54,7.37-3.76-5.53s1.98,3.9,3.12-.5,1.2-6.02,1.2-6.02Z"/>
    <path class="cls-12" d="M259.09,575.97l.78,6.52s-1.56,4.46,3.65,6.38l.46-.85h1.77l-.85,15.24-5.39-5.03-.43-3.33,3.76,1.77-1.28-4.46s-1.42-1.35-2.48-.43l-.85-1.77v-8.15l.85-5.88Z"/>
    <path class="cls-12" d="M320.45,510.19l.92.57-4.15,9.6-1.59-.78,1.1-1.77-.43-1.7s.99-2.8,4.15-5.92Z"/>
    <path class="cls-12" d="M322.54,508.39l4.18-4.96s2.02-2.83-1.17-2.27-2.59.85-2.59.85l-.43,2.34v4.04Z"/>
    <path class="cls-12" d="M321.15,487.17l1.13.9-14.41,7.18s-5.39.61-9.59-2.13l22.87-5.95Z"/>
    <path class="cls-12" d="M297.15,485l2.27,2.61,9.59-1.76,9.59-5.37s2.36-1.77,3.5.6l1.18.43-.99-2.5,11.29-3.26s5.2-6.86,8.65-7.54l.85-.21v-4.72s-8.74,6.38-9.87,6.09-1.32-1.46-2.11-.99.22,1.94.22,1.94l-34.16,14.69Z"/>
    <path class="cls-10" d="M299.89,489.7l-3.5-1.84s-3.97.28-5.29-2.46l-.33,4.63,1.61-2.31.14,6.09,3.21.43-1.37-1.8,5.53-2.74Z"/>
    <polygon class="cls-10" points="294.12 499.08 289.22 502.13 287.32 513.61 289.22 513.61 294.12 499.08"/>
    <path class="cls-10" d="M298.73,510.13s-2.91-2.06-5.39,2.83l-1.06,1.77s2.27.64,3.22-1.13,3.22-3.47,3.22-3.47Z"/>
    <path class="cls-10" d="M293.56,520.98h-4.89v-2.62l-1.7.35v5.95l-1.49,2.03-1.91.87s2.2.78,1.28,2.13-1.28,2.06-1.28,2.06l1.13.5s-4.89,6.38-5.81,11.76-2.2,12.33-4.61,16.19-6.31,22.43-6.59,26.61-1.56,14.6-1.56,14.6l1.35-2.48,2.27-.5,1.2-4.89-2.13-.83,2.83-14.06,14.73-39.19s2.98,3.9,6.74,1.91l-7.09,7.87-.57-1.56-.5,1.91.85,3.26s-8.43,16.3-9.92,24.17-.71,10.42-.71,10.42c0,0,2.34.78,6.24-14.95,3.9-15.73,13.75-29.68,13.75-29.68l-.92-3.34-4.54.93.5-1.15-2.41-3.26,2.62-1.98s-4.32.71,3.12-13.04Z"/>
    <path class="cls-10" d="M305.89,504.18l-2.91,4.2s5.17-.38,2.91-4.2Z"/>
    <path class="cls-10" d="M313.33,493.41l-6.87,6.87,1.13,3.33s6.76-4.25,6.14-9.07l-.4-1.13Z"/>
    <polygon class="cls-10" points="290.12 478.99 289.22 472.11 281.83 485.97 285.05 485.19 287.71 479.04 288.17 479.04 288.17 481.72 290.12 478.99"/>
    <path class="cls-10" d="M267.23,501.84l-1.38-.14.28-10.91-1.2,1.06s-1.31-2.94,2.3-6.94h1.74l5.1-6.27-.21,1.85h.39l.43-1.07s4.78-6.91,8.54-10.52,5.46-5.07,5.53-6.13,2.87-.39,1.38,2.44-3.01,6.52-3.01,6.52l.07-3.26s-5.6,4.5-8.54,10.58-2.02,3.92-2.02,3.92c0,0-3.05-1.7-5.07,3.51s-4.32,15.38-4.32,15.38Z"/>
    <path class="cls-10" d="M264.22,482.99s-4.89,11.13-4.64,16.26c0,0-.78,1.67-1.81,2.02l-.34.24,3.8-16.42.87-1.96.54-.14h1.57Z"/>
    <path class="cls-10" d="M298.57,632.25v39.54l-1.13,7.8,1.13,6.38-1.13,6.94,2.2,2.83-1.1,15.45v18.99l2.44,15.45,2.13,11.62-2.83,7.23,2.83,2.41-.71,7.09.71,12.9s-.85,12.76-4.25,0-.14-33.87-.14-33.87l-1.98-20.41-4.68-2.41-1.98,11.2-1.28-.85.99-9.92.85-4.96s-4.54-.28-4.39-4.96,1.42-10.35,1.42-10.35l2.55,9.64.99-8.22-3.12-2.98,2.55-.85,1.42-9.35-1.7-4.54,2.41-.14,1.91-17.01-1.49-5.1.43-10.06s2.98,0,1.84-3.4-1.98-1.84-1.98-1.84l1.2-12.76s1.06-4.54,2.06-1.13,1.84-10.35,1.84-10.35Z"/>
    <path class="cls-9" d="M297.72,657.76l-.99,45.5s-.14,2.83.5,7.23.75,4.11-.51,6.66,2.71,3.4,2.85,4.54,0,4.96,0,4.96l-2.27,2.98-1.84-3.97-.78-21.69,1.63-41.95,1.42-4.25Z"/>
    <path class="cls-9" d="M302.82,781.63l.29,5.24-1.84,2.27-1.64-5.53-1.34-15.59,4.11,5.95s-2.41-.14-1.7,2.69,2.12,4.96,2.12,4.96Z"/>
    <path class="cls-9" d="M300.28,764.48l-.65,1.98s-1.48-10.16-1.34-17.84-1.56-16.04-1.56-16.04l.57-2.98,2.33,1.84s-1.74,3.85,0,10.06,0,12.61,0,12.61l.65,10.35Z"/>
    <path class="cls-10" d="M427.79,437.39l8.22,6.8-3.44.76,1.27,2.83-7.28-1.7,6.01,4.44v1.8l-4.4-1.51-.85,3.21s-6.05-3.02-5.1,2.46l-9.35,3.12,19.71,4.06,1.46-.85,1.98,3.59h1.61v-9.35l-2.46-3.4,3.4-6.61,16.54,7.18-1.98,1.7,9.83,9.54s-3.69,2.08-6.99-2.17-3.4-2.65-3.4-2.65l-4.06,1.8,6.43,3.02s-6.33-.66-10.39,2.83-5.48,5.1-5.48,5.1l7.56-1.04s-3.79,4.25-6.81,4.72-5.85.38-6.13,2.27-4.72-.66-6.52,3.21-6.99,5.92-6.99,5.92c0,0-4.91-.44-5.01,2.96s-3.97,3.97-5.01,4.54-1.25,2.54-2.27,4.69-7.75,5.13-7.75,5.13l1.79-5.13,14.75-15.09,7.28-4.06,7.67-8.13v-2.74l-4.27-1.32.19-.94,3.5.39-11.43-6.63-16.35,1.7-.94-1.8,24.85-18.05-.94-1.32s-3.31.85-3.78-1.42l5.39-3.87Z"/>
    <polygon class="cls-10" points="469.74 470.18 470.87 470.18 469.74 472.82 483.06 479.44 481.83 481.8 478.91 480.95 480.51 479.34 462.46 474.05 468.04 472.82 469.74 470.18"/>
    <path class="cls-10" d="M457.08,472.54s.85,2.83,5.39,3.45,2.93,1.46,2.93,1.46l-2.93,1.17-7.28-3.04,5.24,5.84,2.51-1.89,1.61,1.89,2.65-1.7s-.76,2.08,2.65,2.46,5.48,1.32,5.1,3.02-5.2,1.23-5.2,1.23l-1.04,2.05-4.06-2.14-3.97,1.13-3.97-5.1s-7.65,1.2-7.65-1.86.19-4.66,3.12-4.52-2.17-1.98-2.17-1.98l7.08-1.46Z"/>
    <path class="cls-10" d="M475.98,483.97v3.31l2.27,1.2-9.64.41-.66,1.04,4.13.85-2.62,2.17,5.52,2.08,1.37-3.02,4.16,6.71,1.32-1.32,4.72,1.32,2.74,4.54,7.56,2.55-2.27-2.83-5.01-2.3.94-1.76,15.4,8.03s9.54,6.52,11.43,11.15l25.42,21.17s.94-2.17-5.29-8.79-24.28-26.65-24.28-26.65c0,0-9.45-8.22-17.06-10.96l-7.23-6.05-12.94-2.83Z"/>
    <path class="cls-10" d="M481.36,466.21l-.76,1.7,4.44,2.27-1.98,1.07,15.45,7.19,4.58.19s-2.27-4.01,1.23-2.64l2.93,3.17,6.24,1.35-8.5-5.42-23.62-8.88Z"/>
    <path class="cls-10" d="M503.94,471.12l-1.51,1.42-10.11-10.58s6.05-4.06,6.24-1.04-2.41,1.61-2.41,1.61l7.8,8.6Z"/>
    <path class="cls-10" d="M491.14,460.56s-3.61-8.93-12.69-12.97,12.69,12.97,12.69,12.97Z"/>
    <path class="cls-10" d="M511.34,491.25l-2.98.71,2.13,4.89-9.92-7.3.64-1.63s8.22-.43,10.13,2.83v.5Z"/>
    <path class="cls-1" d="M544.03,580.08s5.95,6.18,7.44,10.22,1.56,2.2,1.56,2.2c0,0,3.83-6.87-3.9-13.25l-.85,1.91-4.25-1.08Z"/>
    <path class="cls-13" d="M343.07,467.99l-2.77,1.55.53,6.66-1.33.53v-3.61s-2.61.64-2.43,2.69,0,2.59,0,2.59v2.73l1.64-.78,5.31-7.76-1.13-.14.19-4.45Z"/>
    <polygon class="cls-13" points="330.65 484.8 331.56 485.99 328.95 489.52 330.65 490.87 330.09 493.73 327.75 495.31 328.69 497.02 322.99 501.85 322.57 504.18 320.95 505.22 319.56 503.77 320.38 499.62 327.04 491.47 326.65 490.51 328.01 486.5 330.65 484.8"/>
    <path class="cls-13" d="M411.86,646.11l10.91,13.89-.9,2.03s-6.24-1.23-13.61,2.03-8.98.99-8.98.99l-1.23-1.75,10.42-3.64,2.9-11.15-.57-1.61,1.04-.8Z"/>
    <path class="cls-13" d="M408.49,638.11l.8-2.69-.8-2.06s-6.29-6.24-7.42-10.06-1.51-7.03-1.61-7.09-1.39-3.12-1.39-3.12l-3.24-2.13-.99.64,5.53,14.46s-7.3-6.8-8.79-11.55-5.24-14.67-5.24-14.67c0,0-3.19,6.31.92,14.39s5.24,13.59,9.21,16.01,13.02,7.87,13.02,7.87Z"/>
    <path class="cls-9" d="M220.92,232.86l1.61-1.54,4.77-5.17,1.61-1.02,5.24-.69s3-4.54,3.07-4.58,8.06-5.08,8.06-5.08l-.21,6.54,5.98-8.53,6.33-2.31,3.5,9.26,7.18,1.93,14.41-1.17-1.7.76v3.31l7.28-.57,2.83-.47,7.46,4.44,2.3-3.97.91,4.44,1.32.59,2.36-5.51,13.8,4.72,6.61,1.51,1.32-.73,5.01,1.76-2.59,1.52-2.51-.09-1.42-.66-2.36-.09-1.13.94h-3.4l-1.61.45h-4.63l-1.61-.64h-2.55l-15.21-1.43h-8.6l-5.1-1.76-5.39,1.76-2.46-.65-4.82-.66-4.82-.94-5.77,1.01-.56-.51h-8.13s-1.22-.5-1.22-.5l-1.98.66-11.06,1.6s-9.52,1.38-12.12,2.07Z"/>
    <path class="cls-9" d="M316.66,219.66h4.29s.43-1.7-.79-2.65-3.31-.57-5.57,0l2.08,2.65Z"/>
    <path class="cls-9" d="M312.7,218.43s1.61-4.06-2.27-5.76-3.4,0-3.4,0c0,0,3.52,2.27,2.99,3.31s2.68,2.46,2.68,2.46Z"/>
    <path class="cls-9" d="M317.81,187.82c-.1,0-6.06,2.65-6.06,2.65v5.48l-3.5,1.61s-.57,2.46,3.69,5.2l9.09,2.08s5.93-1.98,2.82-4.25-4.06-2.83-4.06-2.83l-1.42-5.48s5.86-.47,4.82-1.89-5.38-.19-5.38-.19v-2.36Z"/>
    <polygon class="cls-9" points="326.59 199.91 326.59 202.93 331.97 204.82 334.52 203.97 334.52 202.37 326.59 199.91"/>
    <path class="cls-9" d="M345.58,209.55v2.36l3.5,3.26s3.78-.99.57-4.68l2.27-3.87,4.16,3.87h-2.46l-.85,3.02.38,2.92,2.46,1.99,4.54-6.52,3.21-2.93v-3.78l1.13-.85-.47-1.61-3.12-2.27-.09,1.42-.66.47-2.08-4.16-1.42-.66-7.46-5.86h-1.32l-3.21-.85-3.38-1.8,2.63-4.72,4.16-.76,7.09,3.02-3.31,1.61,5.76,4.54,2.83-1.89-3.31-3.69-4.63-6.14-15.02-1.98v.57l-5.95-1.8s-2.65-3.97-6.05-1.13l6.52,3.31-.85,1.13s-4.54-2.08-4.54-.85,9.17,6.9,9.17,6.9l-.28,2.17,2.27,1.13,3.51,3.31,3.19,7.84,3.5.19-.76,7.75h-1.61Z"/>
    <path class="cls-9" d="M365.61,203.69v4.16l5.76,8.59s2.36-2.45,3.21,4.45l2.17,1.61.28-2.83-4.82-10.11-1.7.94s-1.23-.09-.57-5.2c0,0,2.17-4.35-4.35-1.61Z"/>
    <path class="cls-9" d="M357.2,230.15l1.04,4.35-7.09-.65-1.98-.51s-3.88.55-6.81-.47l-.66-1.3,15.5-1.42Z"/>
    <path class="cls-9" d="M373.64,226.87l1.04,4.35-7.09-.65-1.98-.51s-3.88.55-6.81-.47l-.66-1.3,15.5-1.42Z"/>
    <polygon class="cls-9" points="331.97 215.17 331.97 218.43 337.55 222.49 340.1 222.49 337.92 218.43 333.2 215.17 331.97 215.17"/>
    <path class="cls-9" d="M337.55,227.22v5.65h2.55s2.74-5.55-2.55-5.65Z"/>
    <path class="cls-9" d="M349.97,222.49l-2.69,2.36s2.36,4.16,6.05-.76l-3.35-1.61Z"/>
    <path class="cls-9" d="M326.59,173.64l-13.13,9.73-5.22-3.97-4.42-1.8s-2.83,1.13-4.63-.85l-3.59.28-1.04-1.4.94-2-.94-.66-3.21.94s3.4,3.69-4.54-.28c0,0-1.89-.06-1.51,2,0,0-4.16-1.78-4.72,0s-2.55,5.65-2.55,5.65l-2.46,1.42-7.09.19-1.61-1.23-13.04,6.14-5.76,8.03-6.71,11.43-1.51,3.21-.94.47-.76-3.21-2.17-3.4-1.23,3.59-.66,5.29-3.87,8.44-.66-.7,3.78-15.21,2.83-5.86s8.6-13.8,12.57-16.06,4.91-4.35,15.4-6.14,15.4-3.5,19.56-5.86,3.87-3.69,13.04-2.74,22.68,1.8,23.43,2.27,6.43,2.27,6.43,2.27Z"/>
    <polygon class="cls-9" points="322.71 178.27 323.66 178.65 323.18 184.51 318.46 183.28 322.71 178.27"/>
    <polygon class="cls-9" points="332.63 222.49 327.25 223.44 327.25 225.8 334.05 230.04 332.63 222.49"/>
    <path class="cls-9" d="M361.92,213.52l-1.61,4.53v6.9s.85,1.49,4.16,1.55l-1.32-10.9-1.23-2.08Z"/>
    <path class="cls-9" d="M374.32,228.51l-2.08-3.25v6.9s.85,1.49,4.16,1.55l-1.32-10.9-.76,5.7Z"/>
    <path class="cls-13" d="M284.96,192.54s-4.96-4.25-4.82,1.7-1.28,6.66-1.28,6.66l-4.39-8.22.57,8.22s-2.83,3.97-.57,3.54,2.41-2.13,2.41-2.13l3.69.28,5.81.28-1.56-3.12s-3.12-1.13.14-7.23Z"/>
    <polygon class="cls-13" points="282.84 185.74 280.71 188.86 279.29 184.18 282.84 181.63 282.84 185.74"/>
    <path class="cls-13" d="M274.76,182.62h-3.69s.14-5.95,3.69,0Z"/>
    <polygon class="cls-13" points="270.08 182.62 270.08 185.88 268.23 185.88 268.23 183.33 270.08 182.62"/>
    <polygon class="cls-13" points="254.67 185.24 257.33 188.86 254.67 188.86 254.67 185.24"/>
    <path class="cls-13" d="M254.07,187.72l-2.27,3.97-2.27,8.79s4.82-2.41,4.54-5.67,0-7.09,0-7.09Z"/>
    <path class="cls-13" d="M245.94,210.68h1.27c.65,0,1.18.53,1.18,1.18v1.45c0,.31-.12.61-.34.83-1.43,1.44-7.12,6.97-12.16,8.73-.75.26-1.54-.33-1.54-1.13h0c0-.44.24-.84.63-1.04,2.06-1.1,8.55-4.85,9.82-9.18.15-.5.6-.84,1.12-.84Z"/>
    <path class="cls-13" d="M295.24,212.65h1.27c.65,0,1.18.53,1.18,1.18v1.45c0,.31-.12.61-.34.83-1.43,1.44-7.12,6.97-12.16,8.73-.75.26-1.54-.33-1.54-1.13h0c0-.44.24-.84.63-1.04,2.06-1.1,8.55-4.85,9.82-9.18.15-.5.6-.84,1.12-.84Z"/>
    <path class="cls-13" d="M318.58,181.1h1.27c.65,0,1.18.53,1.18,1.18v1.45c0,.31-.12.61-.34.83-1.43,1.44-7.41,11.22-12.45,12.99-.75.26-1.25-4.59-1.25-5.39h0c0-.44.24-.84.63-1.04,2.06-1.1,8.55-4.85,9.82-9.18.15-.5.6-.84,1.12-.84Z"/>
    <path class="cls-13" d="M254.67,205.3l-2.86,2.55s5.52,2.41,8.21-2.55h-5.35Z"/>
    <path class="cls-13" d="M262.49,202.82l5.74,8.72,1.85-1.56-.93-7.37s-4.26-3.19-6.66.21Z"/>
    <path class="cls-13" d="M277.74,214.08l-4.14,4.68,1.16.85s5.67.28,6.31-3.4l-1.08-2.83-2.25.71Z"/>
    <path class="cls-13" d="M270.08,213.38l-1.85,6.24s-2.83,1.27-3.82-.57l-.99-1.84-.24-.49s-12.09,8.71-17.05,9.56-2.58-1.28-2.58-1.28l9.81-5.07s11.33-5.13,16.72-6.55Z"/>
    <path class="cls-13" d="M331.03,193.39s3.83,3.54-.71,2.55c0,0-.71,5.53,3.97,6.66l4.01-1.56s-3.98-.08,2.95,3.43l-1.58-6.7s-.43-2.97-4.54-3.67l-4.11-.71Z"/>
    <path class="cls-13" d="M325.64,184.25v6.82s1.98-.54,1.42,6.7l-2.69,1.16s.43-2.43,0-5.54,0-7.51,0-7.51l1.28-1.63Z"/>
    <polygon class="cls-13" points="336.98 206.22 338.18 208.77 336.98 210.19 335.14 210.19 336.98 206.22"/>
    <path class="cls-13" d="M344.7,209.41l-1.7.78v.71l.85.64s-3.26,2.91.85,4.96l-.43,1.2,1.98,1.92c1.7,0,.92-1.49.92-1.49l3.12-.99-1.42-2.62s-2.13,2.34-2.69-1.14-.99-3.54-.99-3.54l-.85-.43h.35Z"/>
    <path class="cls-13" d="M341.73,212.38s.07,2.27-1.7,1.42-2.69-2.34-2.69-2.34c0,0,2.48-.92,4.39.92Z"/>
    <path class="cls-18" d="M290.96,201.26l3.97,3.57-1.2,3.61h-2.77s-1.26,4.4,2.77,4.94,4.79,3.06,4.79,3.06l-2.27.55s-3.27-6.33-6.83-3.47-8.36,2.69-8.36,2.69l-1.08-2.83s4.93-9.9,7.38-11.01,3.59-1.11,3.59-1.11Z"/>
    <path class="cls-18" d="M282.84,202.78s-1.89,9.95-5.1,11.3-7.99.43-7.99.43l.34-1.14,7.98-2.88-6.99-.31,3.4-5.74,8.36-1.66Z"/>
    <path class="cls-18" d="M265.26,205.3s5.86,3.99,3.4,4.89-10.2,3.19-10.2,3.19c0,0,.17,3.15-.86,5.46s-10.64,2.08-10.64,2.08l10.42-10.42,7.89-5.2Z"/>
    <path class="cls-18" d="M254.08,200.48s3.45,2.27.59,4.82-8.68,4.11-8.68,4.11l-1.13-2.34-4.35,7.44.85-7.23,3.69-2.8,3.11,1.74,5.92-5.74Z"/>
    <path class="cls-18" d="M246.96,191.07c-.59,3.76-3.77,2.58-4.73,5.25s-.84,4.94-.84,4.94h4.8s-.78,0,0-5.09,4.82-10.47,2.22-9.11-5.42,2.92-5.42,2.92l-2.94,4.08,6.92-2.98Z"/>
    <polygon class="cls-2" points="237.29 198.14 238.5 201.26 236.59 203.74 235.36 201.57 237.29 198.14"/>
    <path class="cls-2" d="M291.22,220.92v2.38l-1.97.78s-2.36,8.1-9.27,2.4l-.69,1.38-20.39-1.38v-2.3l-1.58-.09,6.69-2.17s-.76-1.03-1.23-.99-3.69.99-3.69.99l-1.77-1.25,7.09-1.61s2.86,2.44,4.25.57-1.98-.06,5.61.31,9.67-1.69,10.52,0,6.43.99,6.43.99Z"/>
    <polygon class="cls-2" points="283.95 203.74 281.49 214.82 281.49 204.48 283.95 203.74"/>
    <path class="cls-2" d="M290.96,208.43s-.4,3.63,4.32,4.67,2.53,2.2,2.53,2.2l-4.02-1.46s.73,3.52-1.63,1.46-1.2-6.87-1.2-6.87Z"/>
    <path class="cls-2" d="M298.97,209.28l5.7,2.91v1.18s-5.7-2.86-5.04,0,5.67,4.37,5.67,4.37c0,0,.66-2.74,3.21,0s3.87,4.82,7.65,4.63,7.18-1.98,6.52-4.44,1.18-1.32,1.49-.94,1.49-2.17,1.49-2.17l-1.49.38-7.25-6.76,9.45,3.1-4.54-4.46-10.87-1.77-.09.45,4.82,3.38-16.72.15Z"/>
    <path class="cls-2" d="M308.42,197.77c.28.13,10.11,1.16,10.11,1.16l-1.7-3.3,7.35,4.84s1.96-12.73.19-14.6-6.5-2.24-6.5-2.24c0,0-3.97,4.63-2.93,5.67s4.54.94,4.54.94c0,0,7.84,2.41,2.46,3.14s-7.18-1.33-7.18-1.33l-2.08.56-4.25,5.16Z"/>
    <path class="cls-22" d="M285.22,202.05c.28.13,10.11,1.16,10.11,1.16l-1.7-3.3,7.35,4.84s1.96-12.73.19-14.6-6.5-2.24-6.5-2.24c0,0-3.97,4.63-2.93,5.67s4.54.94,4.54.94c0,0,7.84,2.41,2.46,3.14s-7.18-1.33-7.18-1.33l-2.08.56-4.25,5.16Z"/>
    <path class="cls-22" d="M245.74,204.65c.28.13,10.11,1.16,10.11,1.16l2.56,11.18,12.67-3.97c-6.29,2.78-11.37-16.74-9.39-20.26,1.26-2.24-6.5-2.24-6.5-2.24,0,0,.83,3.02,1.87,4.06s-.27,2.55-.27,2.55c0,0,7.84,2.41,2.46,3.14s-7.18-1.33-7.18-1.33l-2.08.56-4.25,5.16Z"/>
    <path class="cls-22" d="M352.55,225.33c.28.13,10.11,1.16,10.11,1.16l-1.7-3.3,7.35,4.84s1.96-12.73.19-14.6-6.5-2.24-6.5-2.24c0,0-3.97,4.63-2.93,5.67s4.54.94,4.54.94c0,0,7.84,2.41,2.46,3.14s-7.18-1.33-7.18-1.33l-2.08.56-4.25,5.16Z"/>
    <path class="cls-2" d="M312.11,186.84l-1.98,4.76s-7.65,1.04-4.16-4.54,4.16-2.8,4.16-2.8l-2.46,2.59h4.44Z"/>
    <polygon class="cls-2" points="300.2 187.05 296.14 176.55 294.5 175.79 289.26 177.02 289.71 178.15 294.73 178.06 289.71 185.24 298.97 188.86 300.2 187.05"/>
    <polygon class="cls-2" points="312.83 181.75 308.77 171.25 307.14 170.49 301.89 171.72 302.34 172.85 307.36 172.76 297.7 173.57 311.6 183.55 312.83 181.75"/>
    <polygon class="cls-2" points="279.99 177.87 282.06 179.19 282.06 181.63 279.29 183.55 279.29 192.06 278.56 193.39 274.28 187.61 275.54 185.63 274.76 185.24 273.6 187.05 272.33 187.05 274.76 182.62 275.82 182.62 279.99 177.87"/>
    <path class="cls-2" d="M258.11,182.62s4.86-.64,4.86,0-2.95,8.97-2.95,8.97v-5.71l-2.69.5.79-3.76Z"/>
    <polygon class="cls-2" points="251.8 186.84 251.26 190.53 250.69 194.05 247.48 196.11 245.68 196.11 247.94 190.6 251.8 186.84"/>
    <path class="cls-2" d="M242,201.26s-3.87,7.13-3.87,6.66-1.19-5.67-1.19-5.67l3.58-1.77,1.49.78Z"/>
    <path class="cls-2" d="M237.29,198.14l-2.93,9.36s5.08-5.97,5.1-6.24-2.17-3.12-2.17-3.12Z"/>
    <path class="cls-2" d="M224.52,224.26c.28-.09,1.8.85,1.8.85,0,0-3.21,1.23-.9,2.08s1.84,3.02,1.84,3.02c0,0-3.31,1.7-3.87,1.42s-.38-1.8-.38-1.8l1.51-5.57Z"/>
    <path class="cls-2" d="M324.18,218.41v6.33s-5.5,2.27,0-6.33Z"/>
    <path class="cls-2" d="M328.92,212.19l-2.55,6.59,5.29-.38v-2.92s-2.17-.38-2.17-.67.28-.98.28-.98l3.59,2.11,3.3-1.13-7.74-2.63Z"/>
    <polygon class="cls-2" points="348.96 203.74 346.47 209.12 350.3 211.23 351.51 207.48 348.96 203.74"/>
    <path class="cls-2" d="M356.99,197.77v2.7l-1.89,2.31,3.59,1.69,1.42,5.71s-3.78,2.2-1.04,2.43,1.8,1.55,1.04,2.21-5.01,1.13-5.01,1.13l-.47-6.83s2.93-.64,1.98-2.91-4.57-5.95-7.62-4.96c-3.05.99-4.09,0-4.09,0l-3.64-7.87,9.9,1.96-1.44-1.96,2.55-1.33,4.72,5.72Z"/>
    <path class="cls-2" d="M357.55,192.06s2.93.3,2.46,5.72,3.59,3.48,3.59,3.48c0,0,3.4-1.63,1.13-3.48s-3.19-4.38-3.19-4.38l-1.82-2.32-2.17.99Z"/>
    <polygon class="cls-2" points="347.63 184.77 348.99 186.56 345.74 187.23 344.33 185.63 347.63 184.77"/>
    <path class="cls-1" d="M298.52,218.83c.21.8-.2,5.66-.2,5.66l-7.1-1.2s1.83-4.9,3.68-3.29,3.62-1.18,3.62-1.18Z"/>
    <path class="cls-1" d="M339.18,203.35c.21.12-2.2,2.87-2.2,2.87l1.2,1.28s1.42,3.59,4.44,1.91,1.7-2.54,1.7-2.54h-3.52l-1.63-3.52Z"/>
    <path class="cls-1" d="M342.71,222.49c.21.12-2.2,2.87-2.2,2.87l1.2,1.28s1.42,3.59,4.44,1.91,1.7-2.54,1.7-2.54h-3.52l-1.63-3.52Z"/>
    <path class="cls-1" d="M268.23,187.72l2.84.09s6.07.78,0,2.06-7.06,5.37-7.06,5.37l-3.99-1.85s1.82-3.33,4.23-4.13,3.98-1.54,3.98-1.54Z"/>
    <path class="cls-1" d="M241.33,207.49l-.69,5.88s-.3-.8-2.14,1.14.24,2.93-1.13,2.97-1.46-2.27-1.46-2.27l1.01-2.98s1.68,1.75,2.01-.05,2.41-4.7,2.41-4.7Z"/>
    <path class="cls-1" d="M339.18,203.35l2.55-1.75s.26-1.78-2.55-1.68-2.86,1.72-2.86,1.72l2.86,1.72Z"/>
    <path class="cls-1" d="M373.97,238.08l6.3,3.41s-1.09-7.87-3.9-7.77-5.7.77-5.7.77l3.31,3.59Z"/>
    <path class="cls-1" d="M369.6,228.94l2.6,1.1s.52-6.49-2.29-6.4-3.5-1.98-3.5-1.98l3.19,7.27Z"/>
    <path class="cls-1" d="M357.71,228.94l.53-3.93s2.81-4.22,0-4.12-3.39,6.33-3.39,6.33l2.86,1.72Z"/>
    <path class="cls-1" d="M366.41,234.49l-2.74-3.21s2.91-5.52.09-5.43-4.15,5.29-4.15,5.29l6.79,3.35Z"/>
    <path class="cls-1" d="M341.25,182.32c.48.32,2.7,3.13,1.69,3.67s-3.2,3.38-3.41,3.24-3.83-4.23-2.2-4.98,3.92-1.93,3.92-1.93Z"/>
    <path class="cls-1" d="M318.92,171.13c.91.11,4.03,1.88,4.03,1.88,0,0-.01,4.91-5.15,4.87s-7.26-2.03-5.7-3.73,4.39.78,4.39.78c0,0,2.91-1.2,1.32-1.91s1.12-1.88,1.12-1.88Z"/>
    <path class="cls-1" d="M298.97,169.33l8.39.74s-.07,3.93-3.62,2.44-1.84-4.76-3.97-1.42-1.49,4.61-2.98,2.27,2.17-4.03,2.17-4.03Z"/>
    <path class="cls-1" d="M288.93,169.33c-.35-.16-5.24,2.52-5.24,2.52,0,0-3.85.59-.97,1.3s5.65.57,6.85-.71,1.49-1.91.64-2.48-1.28-.63-1.28-.63Z"/>
    <path class="cls-1" d="M260.02,178.53l-7.44,5.98,1.77.73,5.39-4.58-.92,1.96s3.54-.9,3.83-1.32,5.17-2.2,5.17-2.2l-4.04.5,1.42-1.32-5.17.26Z"/>
  </g>
</svg>